<svg width="49" height="49" viewBox="0 0 49 49" fill="none" xmlns="http://www.w3.org/2000/svg">
<path d="M37.3925 39.8125L24.9492 41.0566L12.5059 39.8125C12.5059 39.8012 12.5059 11.3667 12.5059 7.75195L24.9492 6.31641L37.3887 7.75195C37.3889 9.28569 37.3923 38.337 37.3925 39.8125Z" fill="white"/>
<path d="M37.3925 39.8125L37.3887 42.652C37.3887 44.7834 35.6603 46.5117 33.528 46.5117H16.3656C14.2333 46.5117 12.5059 44.7833 12.5059 42.652V39.8125H37.3887H37.3925Z" fill="#4E5F7F"/>
<path d="M42.6836 7.27344C43.7411 7.27344 44.5977 8.12998 44.5977 9.1875C44.5977 10.245 43.7411 11.1016 42.6836 11.1016C41.6261 11.1016 40.7695 10.245 40.7695 9.1875C40.7695 8.12998 41.6261 7.27344 42.6836 7.27344Z" fill="#FD5959"/>
<path d="M6.79492 35.0273C8.11658 35.0273 9.1875 36.0983 9.1875 37.4199C9.1875 38.7416 8.11658 39.8125 6.79492 39.8125C5.47326 39.8125 4.40234 38.7416 4.40234 37.4199C4.40234 36.0983 5.47326 35.0273 6.79492 35.0273Z" fill="#FD5959"/>
<path d="M24.9473 41.7266C25.7397 41.7266 26.3828 42.3697 26.3828 43.1621C26.3828 43.9545 25.7397 44.5977 24.9473 44.5977C24.1539 44.5977 23.5117 43.9545 23.5117 43.1621C23.5117 42.3697 24.1539 41.7266 24.9473 41.7266Z" fill="#3D4665"/>
<path d="M37.3887 6.34799V7.75195H12.5059V6.34799C12.5059 4.21668 14.2333 2.48828 16.3656 2.48828H33.528C35.6603 2.48828 37.3887 4.21668 37.3887 6.34799Z" fill="#4E5F7F"/>
<path d="M42.9229 17.3223C43.3193 17.3223 43.6406 17.0009 43.6406 16.6045C43.6406 16.2081 43.3193 15.8867 42.9229 15.8867C42.5264 15.8867 42.2051 16.2081 42.2051 16.6045C42.2051 17.0009 42.5264 17.3223 42.9229 17.3223Z" fill="#CADBFD"/>
<path d="M42.9229 37.4199C43.3193 37.4199 43.6406 37.0986 43.6406 36.7021C43.6406 36.3057 43.3193 35.9844 42.9229 35.9844C42.5264 35.9844 42.2051 36.3057 42.2051 36.7021C42.2051 37.0986 42.5264 37.4199 42.9229 37.4199Z" fill="#CADBFD"/>
<path d="M8.94824 26.4141C9.34466 26.4141 9.66602 26.0927 9.66602 25.6963C9.66602 25.2999 9.34466 24.9785 8.94824 24.9785C8.55183 24.9785 8.23047 25.2999 8.23047 25.6963C8.23047 26.0927 8.55183 26.4141 8.94824 26.4141Z" fill="#CADBFD"/>
<path d="M8.94824 44.5977C9.34466 44.5977 9.66602 44.2763 9.66602 43.8799C9.66602 43.4835 9.34466 43.1621 8.94824 43.1621C8.55183 43.1621 8.23047 43.4835 8.23047 43.8799C8.23047 44.2763 8.55183 44.5977 8.94824 44.5977Z" fill="#CADBFD"/>
<path d="M6.55566 6.31641C6.95208 6.31641 7.27344 5.99505 7.27344 5.59863C7.27344 5.20222 6.95208 4.88086 6.55566 4.88086C6.15925 4.88086 5.83789 5.20222 5.83789 5.59863C5.83789 5.99505 6.15925 6.31641 6.55566 6.31641Z" fill="#CADBFD"/>
<path d="M5.12012 32.6348C5.51653 32.6348 5.83789 32.3134 5.83789 31.917C5.83789 31.5206 5.51653 31.1992 5.12012 31.1992C4.7237 31.1992 4.40234 31.5206 4.40234 31.917C4.40234 32.3134 4.7237 32.6348 5.12012 32.6348Z" fill="#CADBFD"/>
<path d="M26.3821 5.83789H23.4785C23.2143 5.83789 23 5.62361 23 5.35938C23 5.09514 23.2143 4.88086 23.4785 4.88086H26.3821C26.6465 4.88086 26.8607 5.09514 26.8607 5.35938C26.8607 5.62361 26.6465 5.83789 26.3821 5.83789Z" fill="#3D4665"/>
<path d="M32.0933 13.0583H16.9066C16.5073 13.0583 16.1835 12.857 16.1835 12.6087C16.1835 12.3605 16.5073 12.1592 16.9066 12.1592H32.0933C32.4928 12.1592 32.8165 12.3605 32.8165 12.6087C32.8165 12.857 32.4928 13.0583 32.0933 13.0583Z" fill="#CADBFD"/>
<path d="M32.0933 24.2751H16.9066C16.5073 24.2751 16.1835 24.0738 16.1835 23.8255C16.1835 23.5773 16.5073 23.376 16.9066 23.376H32.0933C32.4928 23.376 32.8165 23.5773 32.8165 23.8255C32.8165 24.0738 32.4928 24.2751 32.0933 24.2751Z" fill="#CADBFD"/>
<path d="M32.0933 15.3063H16.9066C16.5073 15.3063 16.1835 15.105 16.1835 14.8568C16.1835 14.6085 16.5073 14.4072 16.9066 14.4072H32.0933C32.4928 14.4072 32.8165 14.6085 32.8165 14.8568C32.8165 15.105 32.4928 15.3063 32.0933 15.3063Z" fill="#CADBFD"/>
<path d="M32.0933 26.5231H16.9066C16.5073 26.5231 16.1835 26.3218 16.1835 26.0736C16.1835 25.8253 16.5073 25.624 16.9066 25.624H32.0933C32.4928 25.624 32.8165 25.8253 32.8165 26.0736C32.8165 26.3218 32.4928 26.5231 32.0933 26.5231Z" fill="#CADBFD"/>
<path d="M32.0933 18.0036H16.9066C16.5073 18.0036 16.1835 17.8023 16.1835 17.554C16.1835 17.3058 16.5073 17.1045 16.9066 17.1045H32.0933C32.4928 17.1045 32.8165 17.3058 32.8165 17.554C32.8165 17.8023 32.4928 18.0036 32.0933 18.0036Z" fill="#CADBFD"/>
<path d="M32.0933 29.2204H16.9066C16.5073 29.2204 16.1835 29.0191 16.1835 28.7708C16.1835 28.5226 16.5073 28.3213 16.9066 28.3213H32.0933C32.4928 28.3213 32.8165 28.5226 32.8165 28.7708C32.8165 29.0191 32.4928 29.2204 32.0933 29.2204Z" fill="#CADBFD"/>
<path d="M32.0933 20.2506H16.9066C16.5073 20.2506 16.1835 20.0493 16.1835 19.8011C16.1835 19.5529 16.5073 19.3516 16.9066 19.3516H32.0933C32.4928 19.3516 32.8165 19.5529 32.8165 19.8011C32.8165 20.0493 32.4928 20.2506 32.0933 20.2506Z" fill="#CADBFD"/>
<path d="M32.0933 31.4674H16.9066C16.5073 31.4674 16.1835 31.2661 16.1835 31.0179C16.1835 30.7697 16.5073 30.5684 16.9066 30.5684H32.0933C32.4928 30.5684 32.8165 30.7697 32.8165 31.0179C32.8165 31.2661 32.4928 31.4674 32.0933 31.4674Z" fill="#CADBFD"/>
<rect x="22.0275" y="13.4863" width="23.3761" height="23.3761" rx="11.6881" fill="url(#paint0_linear_6948_58092)"/>
<path d="M37.6191 25.07L32.5276 30.0694C32.4736 30.1222 32.4024 30.1574 32.3247 30.1698C32.2469 30.1823 32.1669 30.1712 32.0967 30.1383C32.0264 30.1053 31.9697 30.0524 31.9352 29.9874C31.9007 29.9223 31.8901 29.8487 31.9053 29.7778L32.5717 26.7227L29.9518 25.8212C29.8956 25.8019 29.8454 25.7701 29.8058 25.7287C29.7662 25.6873 29.7384 25.6376 29.7249 25.5839C29.7114 25.5303 29.7126 25.4744 29.7284 25.4213C29.7442 25.3682 29.7741 25.3195 29.8155 25.2796L34.907 20.2802C34.9609 20.2274 35.0321 20.1922 35.1099 20.1798C35.1876 20.1673 35.2677 20.1784 35.3379 20.2113C35.4082 20.2443 35.4648 20.2972 35.4994 20.3623C35.5339 20.4273 35.5444 20.5009 35.5293 20.5718L34.8611 23.6302L37.4809 24.5305C37.5368 24.5499 37.5865 24.5817 37.6258 24.6229C37.6651 24.6641 37.6927 24.7136 37.7062 24.7669C37.7197 24.8202 37.7186 24.8758 37.7031 24.9287C37.6876 24.9815 37.6581 25.0301 37.6173 25.07H37.6191Z" fill="white"/>
<defs>
<linearGradient id="paint0_linear_6948_58092" x1="39.8646" y1="15.8839" x2="26.0452" y2="34.6584" gradientUnits="userSpaceOnUse">
<stop stop-color="#F85C5E"/>
<stop offset="0.480769" stop-color="#C3598E"/>
<stop offset="0.923077" stop-color="#9E4ABB"/>
</linearGradient>
</defs>
</svg>
