<svg width="60" height="60" viewBox="0 0 60 60" fill="none" xmlns="http://www.w3.org/2000/svg">
<g clip-path="url(#clip0_7447_65410)">
<path d="M20.7257 19.9706C20.7257 17.7436 19.2307 15.7736 17.0867 15.1796C14.8397 14.5636 12.4307 15.6086 11.3557 17.6686L1.48467 36.5166C-0.624326 40.7896 -0.482326 45.8206 1.86567 49.9686L2.87267 51.7576C5.00767 55.5306 8.48367 58.2476 12.6607 59.4066C14.1017 59.8056 15.5667 60.0046 17.0227 60.0046C19.7867 60.0046 22.5177 59.2906 24.9887 57.8926L36.7467 51.2436C38.9557 49.9976 39.8387 47.3226 38.7557 45.1546C38.2907 44.2206 37.5467 43.4946 36.6237 43.0616C38.2817 41.6906 38.8577 39.3826 37.9127 37.4676C37.4477 36.5316 36.7017 35.8056 35.7757 35.3726C37.4407 34.0006 38.0147 31.6926 37.0587 29.7806C36.6087 28.8756 35.8947 28.1656 35.0107 27.7276L42.1577 23.6846C44.3677 22.4386 45.2497 19.7626 44.1667 17.5956C43.6047 16.4656 42.6327 15.6396 41.4297 15.2706C40.2367 14.9036 38.9307 15.0456 37.8437 15.6586L19.1817 26.2176L20.5437 21.3116C20.6647 20.8856 20.7257 20.4466 20.7257 19.9706ZM38.8277 17.4006C39.4497 17.0506 40.1657 16.9726 40.8437 17.1826C41.5177 17.3896 42.0627 17.8536 42.3787 18.4896C42.9757 19.6836 42.4377 21.2336 41.1777 21.9436L23.2337 32.0946C22.7537 32.3656 22.5837 32.9766 22.8557 33.4566C23.0397 33.7816 23.3777 33.9646 23.7267 33.9646C23.8937 33.9646 24.0627 33.9226 24.2177 33.8346L31.7307 29.5856C31.7307 29.5856 31.7327 29.5836 31.7337 29.5826C32.3457 29.2356 33.0567 29.1576 33.7327 29.3646C34.4077 29.5706 34.9547 30.0346 35.2707 30.6726C35.8687 31.8666 35.3297 33.4166 34.0687 34.1276L26.7317 38.2806C26.2517 38.5516 26.0817 39.1626 26.3537 39.6426C26.5377 39.9676 26.8757 40.1506 27.2247 40.1506C27.3917 40.1506 27.5607 40.1086 27.7157 40.0206L32.5767 37.2716C32.5767 37.2716 32.5817 37.2666 32.5857 37.2646C33.2047 36.9206 33.9157 36.8446 34.5887 37.0526C35.2627 37.2596 35.8077 37.7236 36.1217 38.3546C36.7127 39.5516 36.1737 41.1036 34.9217 41.8146L30.2317 44.4676C29.7517 44.7386 29.5817 45.3496 29.8537 45.8296C30.0377 46.1546 30.3757 46.3376 30.7247 46.3376C30.8917 46.3376 31.0607 46.2956 31.2157 46.2076L33.4247 44.9586C33.4247 44.9586 33.4267 44.9566 33.4277 44.9556C34.0407 44.6076 34.7517 44.5306 35.4267 44.7376C36.1017 44.9436 36.6487 45.4076 36.9647 46.0456C37.5617 47.2396 37.0227 48.7896 35.7627 49.5006L24.0037 56.1506C20.6947 58.0236 16.8567 58.4946 13.1947 57.4776C9.53167 56.4616 6.48367 54.0806 4.61267 50.7736L3.60567 48.9846C1.58467 45.4106 1.46067 41.0796 3.26567 37.4216L13.1257 18.5946C13.6447 17.5996 14.6837 17.0006 15.7707 17.0006C16.0307 17.0006 16.2927 17.0346 16.5517 17.1056C17.8307 17.4596 18.7237 18.6376 18.7237 19.9686C18.7237 20.2556 18.6897 20.5156 18.6177 20.7676L16.6067 28.0076C16.4987 28.3976 16.6357 28.8146 16.9547 29.0636C17.2747 29.3126 17.7117 29.3446 18.0627 29.1456L38.8257 17.3986L38.8277 17.4006Z" fill="white"/>
<path d="M49.3323 11.6663C49.5883 11.6663 49.8443 11.5683 50.0393 11.3733L54.8733 6.53928C55.2643 6.14828 55.2643 5.51628 54.8733 5.12528C54.4823 4.73428 53.8503 4.73428 53.4593 5.12528L48.6253 9.95928C48.2343 10.3503 48.2343 10.9823 48.6253 11.3733C48.8203 11.5683 49.0763 11.6663 49.3323 11.6663Z" fill="white"/>
<path d="M34.8333 11.6663C35.0893 11.6663 35.3453 11.5683 35.5403 11.3733C35.9313 10.9823 35.9313 10.3503 35.5403 9.95928L30.7073 5.12528C30.3163 4.73428 29.6842 4.73428 29.2932 5.12528C28.9022 5.51628 28.9022 6.14828 29.2932 6.53928L34.1263 11.3733C34.3213 11.5683 34.5773 11.6663 34.8333 11.6663Z" fill="white"/>
<path d="M48.6253 25.8733L53.4593 30.7063C53.6543 30.9013 53.9103 30.9993 54.1663 30.9993C54.4223 30.9993 54.6783 30.9013 54.8733 30.7063C55.2643 30.3153 55.2643 29.6833 54.8733 29.2923L50.0393 24.4593C49.6483 24.0683 49.0163 24.0683 48.6253 24.4593C48.2343 24.8503 48.2343 25.4823 48.6253 25.8733Z" fill="white"/>
<path d="M43 8V1C43 0.447 42.553 0 42 0C41.447 0 41 0.447 41 1V8C41 8.553 41.447 9 42 9C42.553 9 43 8.553 43 8Z" fill="white"/>
<path d="M59 17H52C51.447 17 51 17.447 51 18C51 18.553 51.447 19 52 19H59C59.553 19 60 18.553 60 18C60 17.447 59.553 17 59 17Z" fill="white"/>
</g>
<defs>
<clipPath id="clip0_7447_65410">
<rect width="60" height="60" fill="white"/>
</clipPath>
</defs>
</svg>
