<svg width="328" height="424" viewBox="0 0 328 424" fill="none" xmlns="http://www.w3.org/2000/svg">
<g clip-path="url(#clip0_1705_77692)">
<rect width="328" height="424" rx="24" fill="white"/>
<path d="M25.4347 47V32.4545H31.0028C32.054 32.4545 32.9276 32.6203 33.6236 32.9517C34.3243 33.2784 34.8475 33.7259 35.1932 34.294C35.5436 34.8622 35.7188 35.5062 35.7188 36.2259C35.7188 36.8177 35.6051 37.3243 35.3778 37.7457C35.1506 38.1624 34.8452 38.5009 34.4616 38.7614C34.0781 39.0218 33.6496 39.2088 33.1761 39.3224V39.4645C33.6922 39.4929 34.187 39.6515 34.6605 39.9403C35.1387 40.2244 35.5294 40.6269 35.8324 41.1477C36.1354 41.6686 36.2869 42.2983 36.2869 43.0369C36.2869 43.7898 36.1046 44.4669 35.7401 45.0682C35.3755 45.6648 34.8262 46.1359 34.0923 46.4815C33.3584 46.8272 32.4351 47 31.3224 47H25.4347ZM28.0696 44.7983H30.9034C31.8598 44.7983 32.5488 44.616 32.9702 44.2514C33.3963 43.8821 33.6094 43.4086 33.6094 42.831C33.6094 42.4001 33.5028 42.0118 33.2898 41.6662C33.0767 41.3158 32.7737 41.0412 32.3807 40.8423C31.9877 40.6387 31.5189 40.5369 30.9744 40.5369H28.0696V44.7983ZM28.0696 38.6406H30.6761C31.1307 38.6406 31.5402 38.5578 31.9048 38.392C32.2694 38.2216 32.5559 37.9825 32.7642 37.6747C32.9773 37.3622 33.0838 36.9929 33.0838 36.5668C33.0838 36.0033 32.8849 35.5393 32.4872 35.1747C32.0942 34.8101 31.5095 34.6278 30.733 34.6278H28.0696V38.6406ZM42.8951 47.2131C41.8013 47.2131 40.8567 46.9858 40.0613 46.5312C39.2706 46.072 38.6621 45.4233 38.236 44.5852C37.8099 43.7424 37.5968 42.7505 37.5968 41.6094C37.5968 40.4872 37.8099 39.5024 38.236 38.6548C38.6669 37.8026 39.2682 37.1397 40.04 36.6662C40.8118 36.188 41.7185 35.9489 42.7602 35.9489C43.4325 35.9489 44.067 36.0578 44.6636 36.2756C45.2649 36.4886 45.7952 36.8201 46.2545 37.2699C46.7185 37.7197 47.0831 38.2926 47.3482 38.9886C47.6134 39.6799 47.746 40.5038 47.746 41.4602V42.2486H38.8042V40.5156H45.2815C45.2767 40.0232 45.1702 39.5852 44.9619 39.2017C44.7535 38.8134 44.4623 38.508 44.0883 38.2855C43.719 38.063 43.2881 37.9517 42.7957 37.9517C42.2701 37.9517 41.8085 38.0795 41.4107 38.3352C41.013 38.5862 40.7029 38.9176 40.4803 39.3295C40.2625 39.7367 40.1513 40.1842 40.1465 40.6719V42.1847C40.1465 42.8191 40.2625 43.3636 40.4945 43.8182C40.7265 44.268 41.0509 44.6136 41.4675 44.8551C41.8842 45.0919 42.3719 45.2102 42.9306 45.2102C43.3047 45.2102 43.6432 45.1581 43.9462 45.054C44.2493 44.9451 44.5121 44.7865 44.7346 44.5781C44.9571 44.3698 45.1252 44.1117 45.2389 43.804L47.6394 44.0739C47.4879 44.7083 47.1991 45.2623 46.7729 45.7358C46.3515 46.2045 45.8118 46.5691 45.1536 46.8295C44.4955 47.0852 43.7426 47.2131 42.8951 47.2131ZM49.521 47V36.0909H52.0139V37.9091H52.1276C52.3264 37.2794 52.6673 36.794 53.1503 36.4531C53.638 36.1075 54.1943 35.9347 54.8193 35.9347C54.9614 35.9347 55.12 35.9418 55.2952 35.956C55.4751 35.9654 55.6242 35.982 55.7426 36.0057V38.3707C55.6337 38.3329 55.4609 38.2997 55.2241 38.2713C54.9921 38.2382 54.7672 38.2216 54.5494 38.2216C54.0807 38.2216 53.6593 38.3234 53.2852 38.527C52.9159 38.7259 52.6247 39.0028 52.4116 39.358C52.1986 39.7131 52.092 40.1226 52.092 40.5866V47H49.521ZM57.0507 47V36.0909H59.6217V47H57.0507ZM58.3433 34.5426C57.9361 34.5426 57.5857 34.4077 57.2922 34.1378C56.9986 33.8632 56.8518 33.5341 56.8518 33.1506C56.8518 32.7623 56.9986 32.4332 57.2922 32.1634C57.5857 31.8887 57.9361 31.7514 58.3433 31.7514C58.7553 31.7514 59.1056 31.8887 59.3945 32.1634C59.688 32.4332 59.8348 32.7623 59.8348 33.1506C59.8348 33.5341 59.688 33.8632 59.3945 34.1378C59.1056 34.4077 58.7553 34.5426 58.3433 34.5426ZM73.3796 42.4119V36.0909H75.9506V47H73.4577V45.0611H73.3441C73.0979 45.6719 72.6931 46.1714 72.1296 46.5597C71.5709 46.9479 70.882 47.142 70.0629 47.142C69.3479 47.142 68.7158 46.9834 68.1665 46.6662C67.622 46.3442 67.1959 45.8778 66.8881 45.267C66.5804 44.6515 66.4265 43.9081 66.4265 43.0369V36.0909H68.9975V42.6392C68.9975 43.3305 69.1869 43.8797 69.5657 44.2869C69.9445 44.6941 70.4416 44.8977 71.0572 44.8977C71.436 44.8977 71.8029 44.8054 72.158 44.6207C72.5131 44.4361 72.8043 44.1615 73.0316 43.7969C73.2636 43.4276 73.3796 42.9659 73.3796 42.4119ZM78.1945 47V36.0909H80.6518V37.9446H80.7797C81.007 37.3196 81.3834 36.8319 81.9089 36.4815C82.4345 36.1264 83.0619 35.9489 83.791 35.9489C84.5297 35.9489 85.1523 36.1288 85.6589 36.4886C86.1703 36.8437 86.5302 37.3291 86.7385 37.9446H86.8521C87.0936 37.3385 87.5008 36.8556 88.0737 36.4957C88.6514 36.1312 89.3356 35.9489 90.1263 35.9489C91.1301 35.9489 91.9492 36.2661 92.5837 36.9006C93.2181 37.535 93.5354 38.4607 93.5354 39.6776V47H90.9572V40.0753C90.9572 39.3982 90.7773 38.9034 90.4175 38.5909C90.0576 38.2737 89.6173 38.1151 89.0964 38.1151C88.4762 38.1151 87.9909 38.3092 87.6405 38.6974C87.2948 39.081 87.122 39.5805 87.122 40.196V47H84.6007V39.9688C84.6007 39.4053 84.4303 38.9555 84.0893 38.6193C83.7532 38.2831 83.3128 38.1151 82.7683 38.1151C82.399 38.1151 82.0628 38.2098 81.7598 38.3991C81.4568 38.5838 81.2153 38.8466 81.0354 39.1875C80.8554 39.5237 80.7655 39.9167 80.7655 40.3665V47H78.1945ZM95.7437 51.0909V36.0909H98.2721V37.8949H98.4212C98.5538 37.6297 98.7408 37.348 98.9823 37.0497C99.2238 36.7467 99.5505 36.4886 99.9624 36.2756C100.374 36.0578 100.9 35.9489 101.539 35.9489C102.382 35.9489 103.142 36.1643 103.819 36.5952C104.501 37.0213 105.041 37.6534 105.438 38.4915C105.841 39.3248 106.042 40.3475 106.042 41.5597C106.042 42.7576 105.845 43.7756 105.452 44.6136C105.059 45.4517 104.524 46.0909 103.847 46.5312C103.17 46.9716 102.403 47.1918 101.546 47.1918C100.921 47.1918 100.403 47.0876 99.9908 46.8793C99.5789 46.6709 99.2475 46.42 98.9965 46.1264C98.7503 45.8281 98.5585 45.5464 98.4212 45.2812H98.3147V51.0909H95.7437ZM98.265 41.5455C98.265 42.2509 98.3644 42.8688 98.5633 43.3991C98.7669 43.9295 99.0581 44.3437 99.4369 44.642C99.8204 44.9356 100.284 45.0824 100.829 45.0824C101.397 45.0824 101.873 44.9309 102.256 44.6278C102.64 44.3201 102.929 43.901 103.123 43.3707C103.322 42.8357 103.421 42.2273 103.421 41.5455C103.421 40.8684 103.324 40.267 103.13 39.7415C102.936 39.2159 102.647 38.804 102.264 38.5057C101.88 38.2074 101.402 38.0582 100.829 38.0582C100.28 38.0582 99.8133 38.2027 99.4298 38.4915C99.0462 38.7803 98.755 39.1851 98.5562 39.706C98.362 40.2268 98.265 40.84 98.265 41.5455ZM110.983 47.2202C110.292 47.2202 109.669 47.0971 109.115 46.8509C108.566 46.5999 108.13 46.2306 107.808 45.7429C107.491 45.2552 107.332 44.6539 107.332 43.9389C107.332 43.3234 107.446 42.8144 107.673 42.4119C107.901 42.0095 108.211 41.6875 108.604 41.446C108.997 41.2045 109.439 41.0223 109.932 40.8991C110.429 40.7713 110.943 40.679 111.473 40.6222C112.112 40.5559 112.631 40.4967 113.028 40.4446C113.426 40.3878 113.715 40.3026 113.895 40.1889C114.079 40.0705 114.172 39.8883 114.172 39.642V39.5994C114.172 39.0644 114.013 38.6501 113.696 38.3565C113.379 38.063 112.922 37.9162 112.325 37.9162C111.695 37.9162 111.196 38.0535 110.827 38.3281C110.462 38.6027 110.216 38.9271 110.088 39.3011L107.687 38.9602C107.877 38.2973 108.189 37.7434 108.625 37.2983C109.061 36.8485 109.593 36.5123 110.223 36.2898C110.853 36.0625 111.549 35.9489 112.311 35.9489C112.837 35.9489 113.36 36.0104 113.881 36.1335C114.401 36.2566 114.877 36.4602 115.308 36.7443C115.739 37.0237 116.085 37.4048 116.345 37.8878C116.61 38.3707 116.743 38.9744 116.743 39.6989V47H114.271V45.5014H114.186C114.03 45.8045 113.81 46.0885 113.526 46.3537C113.246 46.6141 112.893 46.8248 112.467 46.9858C112.046 47.142 111.551 47.2202 110.983 47.2202ZM111.651 45.331C112.167 45.331 112.614 45.2292 112.993 45.0256C113.372 44.8172 113.663 44.5426 113.866 44.2017C114.075 43.8608 114.179 43.4891 114.179 43.0866V41.8011C114.098 41.8674 113.961 41.929 113.767 41.9858C113.578 42.0426 113.365 42.0923 113.128 42.1349C112.891 42.1776 112.657 42.2154 112.425 42.2486C112.193 42.2817 111.991 42.3101 111.821 42.3338C111.437 42.3859 111.094 42.4711 110.791 42.5895C110.488 42.7079 110.249 42.8736 110.074 43.0866C109.899 43.295 109.811 43.5649 109.811 43.8963C109.811 44.3698 109.984 44.7273 110.329 44.9688C110.675 45.2102 111.115 45.331 111.651 45.331ZM121.499 40.608V47H118.928V36.0909H121.385V37.9446H121.513C121.764 37.3338 122.164 36.8485 122.714 36.4886C123.268 36.1288 123.952 35.9489 124.766 35.9489C125.519 35.9489 126.175 36.1098 126.733 36.4318C127.297 36.7538 127.733 37.2202 128.04 37.831C128.353 38.4418 128.507 39.1828 128.502 40.054V47H125.931V40.4517C125.931 39.7225 125.742 39.152 125.363 38.7401C124.989 38.3281 124.47 38.1222 123.807 38.1222C123.358 38.1222 122.957 38.2216 122.607 38.4205C122.261 38.6146 121.989 38.8963 121.79 39.2656C121.596 39.6349 121.499 40.0824 121.499 40.608ZM135.39 47V32.4545H137.961V37.8949H138.068C138.2 37.6297 138.387 37.348 138.629 37.0497C138.87 36.7467 139.197 36.4886 139.609 36.2756C140.021 36.0578 140.546 35.9489 141.186 35.9489C142.028 35.9489 142.788 36.1643 143.465 36.5952C144.147 37.0213 144.687 37.6534 145.085 38.4915C145.487 39.3248 145.688 40.3475 145.688 41.5597C145.688 42.7576 145.492 43.7756 145.099 44.6136C144.706 45.4517 144.171 46.0909 143.494 46.5312C142.817 46.9716 142.05 47.1918 141.193 47.1918C140.568 47.1918 140.049 47.0876 139.637 46.8793C139.225 46.6709 138.894 46.42 138.643 46.1264C138.397 45.8281 138.205 45.5464 138.068 45.2812H137.919V47H135.39ZM137.911 41.5455C137.911 42.2509 138.011 42.8688 138.21 43.3991C138.413 43.9295 138.705 44.3437 139.083 44.642C139.467 44.9356 139.931 45.0824 140.475 45.0824C141.044 45.0824 141.519 44.9309 141.903 44.6278C142.286 44.3201 142.575 43.901 142.769 43.3707C142.968 42.8357 143.068 42.2273 143.068 41.5455C143.068 40.8684 142.971 40.267 142.776 39.7415C142.582 39.2159 142.294 38.804 141.91 38.5057C141.526 38.2074 141.048 38.0582 140.475 38.0582C139.926 38.0582 139.46 38.2027 139.076 38.4915C138.693 38.7803 138.401 39.1851 138.203 39.706C138.008 40.2268 137.911 40.84 137.911 41.5455ZM150.613 47.2202C149.922 47.2202 149.299 47.0971 148.745 46.8509C148.196 46.5999 147.761 46.2306 147.439 45.7429C147.121 45.2552 146.963 44.6539 146.963 43.9389C146.963 43.3234 147.076 42.8144 147.304 42.4119C147.531 42.0095 147.841 41.6875 148.234 41.446C148.627 41.2045 149.07 41.0223 149.562 40.8991C150.059 40.7713 150.573 40.679 151.103 40.6222C151.743 40.5559 152.261 40.4967 152.659 40.4446C153.057 40.3878 153.345 40.3026 153.525 40.1889C153.71 40.0705 153.802 39.8883 153.802 39.642V39.5994C153.802 39.0644 153.644 38.6501 153.326 38.3565C153.009 38.063 152.552 37.9162 151.956 37.9162C151.326 37.9162 150.826 38.0535 150.457 38.3281C150.093 38.6027 149.846 38.9271 149.718 39.3011L147.318 38.9602C147.507 38.2973 147.82 37.7434 148.255 37.2983C148.691 36.8485 149.224 36.5123 149.853 36.2898C150.483 36.0625 151.179 35.9489 151.941 35.9489C152.467 35.9489 152.99 36.0104 153.511 36.1335C154.032 36.2566 154.508 36.4602 154.939 36.7443C155.37 37.0237 155.715 37.4048 155.976 37.8878C156.241 38.3707 156.373 38.9744 156.373 39.6989V47H153.902V45.5014H153.816C153.66 45.8045 153.44 46.0885 153.156 46.3537C152.877 46.6141 152.524 46.8248 152.098 46.9858C151.676 47.142 151.182 47.2202 150.613 47.2202ZM151.281 45.331C151.797 45.331 152.245 45.2292 152.623 45.0256C153.002 44.8172 153.293 44.5426 153.497 44.2017C153.705 43.8608 153.809 43.4891 153.809 43.0866V41.8011C153.729 41.8674 153.592 41.929 153.397 41.9858C153.208 42.0426 152.995 42.0923 152.758 42.1349C152.521 42.1776 152.287 42.2154 152.055 42.2486C151.823 42.2817 151.622 42.3101 151.451 42.3338C151.068 42.3859 150.725 42.4711 150.422 42.5895C150.119 42.7079 149.879 42.8736 149.704 43.0866C149.529 43.295 149.441 43.5649 149.441 43.8963C149.441 44.3698 149.614 44.7273 149.96 44.9688C150.306 45.2102 150.746 45.331 151.281 45.331ZM161.13 32.4545V47H158.559V32.4545H161.13ZM163.373 47V36.0909H165.944V47H163.373ZM164.666 34.5426C164.259 34.5426 163.908 34.4077 163.615 34.1378C163.321 33.8632 163.174 33.5341 163.174 33.1506C163.174 32.7623 163.321 32.4332 163.615 32.1634C163.908 31.8887 164.259 31.7514 164.666 31.7514C165.078 31.7514 165.428 31.8887 165.717 32.1634C166.011 32.4332 166.157 32.7623 166.157 33.1506C166.157 33.5341 166.011 33.8632 165.717 34.1378C165.428 34.4077 165.078 34.5426 164.666 34.5426ZM170.532 43.5767L170.525 40.473H170.937L174.857 36.0909H177.862L173.039 41.4602H172.506L170.532 43.5767ZM168.188 47V32.4545H170.759V47H168.188ZM175.035 47L171.484 42.0355L173.217 40.2244L178.11 47H175.035Z" fill="#2A2A2A"/>
<path d="M291.281 46.2194C291.351 46.289 291.406 46.3718 291.444 46.4628C291.481 46.5539 291.501 46.6514 291.501 46.75C291.501 46.8485 291.481 46.9461 291.444 47.0372C291.406 47.1282 291.351 47.2109 291.281 47.2806C291.211 47.3503 291.129 47.4056 291.038 47.4433C290.947 47.481 290.849 47.5004 290.75 47.5004C290.652 47.5004 290.554 47.481 290.463 47.4433C290.372 47.4056 290.289 47.3503 290.22 47.2806L284 41.0603L277.781 47.2806C277.64 47.4213 277.449 47.5004 277.25 47.5004C277.051 47.5004 276.861 47.4213 276.72 47.2806C276.579 47.1399 276.5 46.949 276.5 46.75C276.5 46.551 276.579 46.3601 276.72 46.2194L282.94 40L276.72 33.7806C276.579 33.6399 276.5 33.449 276.5 33.25C276.5 33.051 276.579 32.8601 276.72 32.7194C276.861 32.5786 277.051 32.4996 277.25 32.4996C277.449 32.4996 277.64 32.5786 277.781 32.7194L284 38.9397L290.22 32.7194C290.361 32.5786 290.551 32.4996 290.75 32.4996C290.949 32.4996 291.14 32.5786 291.281 32.7194C291.422 32.8601 291.501 33.051 291.501 33.25C291.501 33.449 291.422 33.6399 291.281 33.7806L285.061 40L291.281 46.2194Z" fill="#2A2A2A"/>
<rect width="328" height="152" transform="translate(0 60)" fill="white"/>
<rect x="20.5" y="72.5" width="114" height="35" rx="17.5" fill="white"/>
<rect x="20.5" y="72.5" width="114" height="35" rx="17.5" stroke="#E7E7E7"/>
<path d="M36.5568 85.3643V83.8182H44.6804V85.3643H41.5334V94H39.7038V85.3643H36.5568ZM46.0269 94V86.3636H47.8266V94H46.0269ZM46.9317 85.2798C46.6467 85.2798 46.4014 85.1854 46.1959 84.9964C45.9904 84.8042 45.8877 84.5739 45.8877 84.3054C45.8877 84.0336 45.9904 83.8033 46.1959 83.6143C46.4014 83.4221 46.6467 83.326 46.9317 83.326C47.2201 83.326 47.4654 83.4221 47.6675 83.6143C47.873 83.8033 47.9758 84.0336 47.9758 84.3054C47.9758 84.5739 47.873 84.8042 47.6675 84.9964C47.4654 85.1854 47.2201 85.2798 46.9317 85.2798ZM52.3711 94.1342C51.7712 94.1342 51.2343 93.9801 50.7603 93.6719C50.2863 93.3636 49.9118 92.9162 49.6367 92.3295C49.3616 91.7429 49.2241 91.0303 49.2241 90.1918C49.2241 89.3433 49.3633 88.6274 49.6417 88.044C49.9234 87.4574 50.3029 87.0149 50.7802 86.7166C51.2575 86.415 51.7894 86.2642 52.3761 86.2642C52.8235 86.2642 53.1914 86.3404 53.4798 86.4929C53.7681 86.642 53.9968 86.8227 54.1658 87.0348C54.3349 87.2436 54.4658 87.4408 54.5586 87.6264H54.6332V83.8182H56.4379V94H54.668V92.7969H54.5586C54.4658 92.9825 54.3316 93.1797 54.1559 93.3885C53.9802 93.594 53.7482 93.7696 53.4599 93.9155C53.1715 94.0613 52.8086 94.1342 52.3711 94.1342ZM52.8732 92.6577C53.2544 92.6577 53.5792 92.5549 53.8477 92.3494C54.1161 92.1406 54.32 91.8506 54.4592 91.4794C54.5984 91.1082 54.668 90.6757 54.668 90.1818C54.668 89.688 54.5984 89.2588 54.4592 88.8942C54.3233 88.5296 54.1211 88.2462 53.8526 88.044C53.5875 87.8419 53.261 87.7408 52.8732 87.7408C52.4722 87.7408 52.1374 87.8452 51.869 88.054C51.6005 88.2628 51.3983 88.5511 51.2624 88.919C51.1265 89.2869 51.0586 89.7079 51.0586 90.1818C51.0586 90.6591 51.1265 91.085 51.2624 91.4595C51.4016 91.8307 51.6055 92.1241 51.8739 92.3395C52.1457 92.5516 52.4788 92.6577 52.8732 92.6577ZM60.4131 94.1541C59.9292 94.1541 59.4934 94.0679 59.1056 93.8956C58.7211 93.7199 58.4162 93.4614 58.1908 93.12C57.9687 92.7786 57.8577 92.3577 57.8577 91.8572C57.8577 91.4264 57.9372 91.0701 58.0963 90.7884C58.2554 90.5066 58.4725 90.2812 58.7476 90.1122C59.0227 89.9432 59.3326 89.8156 59.6773 89.7294C60.0253 89.6399 60.3849 89.5753 60.7561 89.5355C61.2036 89.4891 61.5665 89.4477 61.8449 89.4112C62.1233 89.3714 62.3255 89.3118 62.4514 89.2322C62.5807 89.1494 62.6453 89.0218 62.6453 88.8494V88.8196C62.6453 88.4451 62.5343 88.1551 62.3122 87.9496C62.0902 87.7441 61.7703 87.6413 61.3527 87.6413C60.9119 87.6413 60.5622 87.7375 60.3037 87.9297C60.0485 88.1219 59.8762 88.349 59.7867 88.6108L58.1063 88.3722C58.2389 87.9081 58.4576 87.5204 58.7625 87.2088C59.0675 86.8939 59.4403 86.6586 59.8811 86.5028C60.322 86.3438 60.8092 86.2642 61.3428 86.2642C61.7107 86.2642 62.0769 86.3073 62.4415 86.3935C62.8061 86.4796 63.1392 86.6222 63.4408 86.821C63.7424 87.0166 63.9844 87.2834 64.1666 87.6214C64.3523 87.9595 64.4451 88.3821 64.4451 88.8892V94H62.7149V92.951H62.6553C62.5459 93.1631 62.3918 93.362 62.1929 93.5476C61.9974 93.7299 61.7505 93.8774 61.4522 93.9901C61.1572 94.0994 60.8108 94.1541 60.4131 94.1541ZM60.8804 92.8317C61.2417 92.8317 61.5549 92.7604 61.8201 92.6179C62.0852 92.4721 62.289 92.2798 62.4316 92.0412C62.5774 91.8026 62.6503 91.5424 62.6503 91.2607V90.3608C62.594 90.4072 62.4979 90.4503 62.362 90.4901C62.2294 90.5298 62.0802 90.5646 61.9145 90.5945C61.7488 90.6243 61.5847 90.6508 61.4223 90.674C61.2599 90.6972 61.1191 90.7171 60.9997 90.7337C60.7313 90.7701 60.491 90.8298 60.2789 90.9126C60.0667 90.9955 59.8994 91.1115 59.7767 91.2607C59.6541 91.4065 59.5928 91.5954 59.5928 91.8274C59.5928 92.1589 59.7138 92.4091 59.9557 92.5781C60.1977 92.7472 60.5059 92.8317 60.8804 92.8317ZM67.7553 91.6037L67.7504 89.4311H68.0387L70.783 86.3636H72.886L69.5103 90.1222H69.1374L67.7553 91.6037ZM66.1147 94V83.8182H67.9144V94H66.1147ZM70.9073 94L68.4215 90.5249L69.6346 89.2571L73.06 94H70.9073ZM79.4755 94.1541C78.9916 94.1541 78.5558 94.0679 78.168 93.8956C77.7835 93.7199 77.4786 93.4614 77.2532 93.12C77.0312 92.7786 76.9201 92.3577 76.9201 91.8572C76.9201 91.4264 76.9997 91.0701 77.1588 90.7884C77.3178 90.5066 77.5349 90.2812 77.81 90.1122C78.0851 89.9432 78.395 89.8156 78.7397 89.7294C79.0877 89.6399 79.4473 89.5753 79.8186 89.5355C80.266 89.4891 80.6289 89.4477 80.9073 89.4112C81.1857 89.3714 81.3879 89.3118 81.5139 89.2322C81.6431 89.1494 81.7078 89.0218 81.7078 88.8494V88.8196C81.7078 88.4451 81.5967 88.1551 81.3747 87.9496C81.1526 87.7441 80.8328 87.6413 80.4151 87.6413C79.9743 87.6413 79.6247 87.7375 79.3661 87.9297C79.1109 88.1219 78.9386 88.349 78.8491 88.6108L77.1687 88.3722C77.3013 87.9081 77.52 87.5204 77.825 87.2088C78.1299 86.8939 78.5027 86.6586 78.9436 86.5028C79.3844 86.3438 79.8716 86.2642 80.4052 86.2642C80.7731 86.2642 81.1393 86.3073 81.5039 86.3935C81.8685 86.4796 82.2016 86.6222 82.5032 86.821C82.8048 87.0166 83.0468 87.2834 83.2291 87.6214C83.4147 87.9595 83.5075 88.3821 83.5075 88.8892V94H81.7774V92.951H81.7177C81.6083 93.1631 81.4542 93.362 81.2553 93.5476C81.0598 93.7299 80.8129 93.8774 80.5146 93.9901C80.2196 94.0994 79.8732 94.1541 79.4755 94.1541ZM79.9428 92.8317C80.3041 92.8317 80.6173 92.7604 80.8825 92.6179C81.1476 92.4721 81.3515 92.2798 81.494 92.0412C81.6398 91.8026 81.7127 91.5424 81.7127 91.2607V90.3608C81.6564 90.4072 81.5603 90.4503 81.4244 90.4901C81.2918 90.5298 81.1427 90.5646 80.9769 90.5945C80.8112 90.6243 80.6472 90.6508 80.4848 90.674C80.3223 90.6972 80.1815 90.7171 80.0622 90.7337C79.7937 90.7701 79.5534 90.8298 79.3413 90.9126C79.1292 90.9955 78.9618 91.1115 78.8392 91.2607C78.7165 91.4065 78.6552 91.5954 78.6552 91.8274C78.6552 92.1589 78.7762 92.4091 79.0181 92.5781C79.2601 92.7472 79.5683 92.8317 79.9428 92.8317ZM86.8178 91.6037L86.8128 89.4311H87.1011L89.8455 86.3636H91.9484L88.5727 90.1222H88.1999L86.8178 91.6037ZM85.1771 94V83.8182H86.9769V94H85.1771ZM89.9698 94L87.484 90.5249L88.697 89.2571L92.1225 94H89.9698ZM97.875 90.7884V86.3636H99.6747V94H97.9297V92.6428H97.8502C97.6778 93.0703 97.3944 93.42 97 93.6918C96.6089 93.9635 96.1267 94.0994 95.5533 94.0994C95.0528 94.0994 94.6104 93.9884 94.2259 93.7663C93.8447 93.541 93.5464 93.2145 93.331 92.7869C93.1156 92.3561 93.0078 91.8357 93.0078 91.2259V86.3636H94.8076V90.9474C94.8076 91.4313 94.9401 91.8158 95.2053 92.1009C95.4704 92.3859 95.8184 92.5284 96.2493 92.5284C96.5145 92.5284 96.7713 92.4638 97.0199 92.3345C97.2685 92.2053 97.4723 92.013 97.6314 91.7578C97.7938 91.4993 97.875 91.1761 97.875 90.7884ZM101.385 94V86.3636H103.13V87.6364H103.21C103.349 87.1955 103.588 86.8558 103.926 86.6172C104.267 86.3752 104.657 86.2543 105.094 86.2543C105.194 86.2543 105.305 86.2592 105.427 86.2692C105.553 86.2758 105.658 86.2874 105.741 86.304V87.9595C105.664 87.933 105.543 87.9098 105.378 87.8899C105.215 87.8667 105.058 87.8551 104.905 87.8551C104.577 87.8551 104.282 87.9264 104.02 88.0689C103.762 88.2081 103.558 88.402 103.409 88.6506C103.26 88.8991 103.185 89.1858 103.185 89.5107V94H101.385ZM108.857 94.1541C108.373 94.1541 107.937 94.0679 107.549 93.8956C107.165 93.7199 106.86 93.4614 106.635 93.12C106.413 92.7786 106.302 92.3577 106.302 91.8572C106.302 91.4264 106.381 91.0701 106.54 90.7884C106.699 90.5066 106.916 90.2812 107.191 90.1122C107.467 89.9432 107.776 89.8156 108.121 89.7294C108.469 89.6399 108.829 89.5753 109.2 89.5355C109.647 89.4891 110.01 89.4477 110.289 89.4112C110.567 89.3714 110.769 89.3118 110.895 89.2322C111.025 89.1494 111.089 89.0218 111.089 88.8494V88.8196C111.089 88.4451 110.978 88.1551 110.756 87.9496C110.534 87.7441 110.214 87.6413 109.797 87.6413C109.356 87.6413 109.006 87.7375 108.748 87.9297C108.492 88.1219 108.32 88.349 108.231 88.6108L106.55 88.3722C106.683 87.9081 106.901 87.5204 107.206 87.2088C107.511 86.8939 107.884 86.6586 108.325 86.5028C108.766 86.3438 109.253 86.2642 109.787 86.2642C110.155 86.2642 110.521 86.3073 110.885 86.3935C111.25 86.4796 111.583 86.6222 111.885 86.821C112.186 87.0166 112.428 87.2834 112.61 87.6214C112.796 87.9595 112.889 88.3821 112.889 88.8892V94H111.159V92.951H111.099C110.99 93.1631 110.836 93.362 110.637 93.5476C110.441 93.7299 110.194 93.8774 109.896 93.9901C109.601 94.0994 109.255 94.1541 108.857 94.1541ZM109.324 92.8317C109.686 92.8317 109.999 92.7604 110.264 92.6179C110.529 92.4721 110.733 92.2798 110.875 92.0412C111.021 91.8026 111.094 91.5424 111.094 91.2607V90.3608C111.038 90.4072 110.942 90.4503 110.806 90.4901C110.673 90.5298 110.524 90.5646 110.358 90.5945C110.193 90.6243 110.029 90.6508 109.866 90.674C109.704 90.6972 109.563 90.7171 109.444 90.7337C109.175 90.7701 108.935 90.8298 108.723 90.9126C108.511 90.9955 108.343 91.1115 108.221 91.2607C108.098 91.4065 108.037 91.5954 108.037 91.8274C108.037 92.1589 108.158 92.4091 108.4 92.5781C108.641 92.7472 108.95 92.8317 109.324 92.8317ZM118.372 86.3636V87.7557H113.982V86.3636H118.372ZM115.066 84.5341H116.865V91.7031C116.865 91.9451 116.902 92.1307 116.975 92.2599C117.051 92.3859 117.15 92.4721 117.273 92.5185C117.396 92.5649 117.532 92.5881 117.681 92.5881C117.793 92.5881 117.896 92.5798 117.989 92.5632C118.085 92.5466 118.158 92.5317 118.208 92.5185L118.511 93.9254C118.415 93.9586 118.277 93.995 118.098 94.0348C117.923 94.0746 117.707 94.0978 117.452 94.1044C117.001 94.1177 116.595 94.0497 116.234 93.9006C115.873 93.7481 115.586 93.5128 115.374 93.1946C115.165 92.8764 115.062 92.4787 115.066 92.0014V84.5341Z" fill="#5A5A5A"/>
<rect x="143.5" y="72.5" width="121" height="35" rx="17.5" fill="white"/>
<rect x="143.5" y="72.5" width="121" height="35" rx="17.5" stroke="#E7E7E7"/>
<path d="M159.557 85.3643V83.8182H167.68V85.3643H164.533V94H162.704V85.3643H159.557ZM169.027 94V86.3636H170.827V94H169.027ZM169.932 85.2798C169.647 85.2798 169.401 85.1854 169.196 84.9964C168.99 84.8042 168.888 84.5739 168.888 84.3054C168.888 84.0336 168.99 83.8033 169.196 83.6143C169.401 83.4221 169.647 83.326 169.932 83.326C170.22 83.326 170.465 83.4221 170.668 83.6143C170.873 83.8033 170.976 84.0336 170.976 84.3054C170.976 84.5739 170.873 84.8042 170.668 84.9964C170.465 85.1854 170.22 85.2798 169.932 85.2798ZM175.371 94.1342C174.771 94.1342 174.234 93.9801 173.76 93.6719C173.286 93.3636 172.912 92.9162 172.637 92.3295C172.362 91.7429 172.224 91.0303 172.224 90.1918C172.224 89.3433 172.363 88.6274 172.642 88.044C172.923 87.4574 173.303 87.0149 173.78 86.7166C174.257 86.415 174.789 86.2642 175.376 86.2642C175.824 86.2642 176.191 86.3404 176.48 86.4929C176.768 86.642 176.997 86.8227 177.166 87.0348C177.335 87.2436 177.466 87.4408 177.559 87.6264H177.633V83.8182H179.438V94H177.668V92.7969H177.559C177.466 92.9825 177.332 93.1797 177.156 93.3885C176.98 93.594 176.748 93.7696 176.46 93.9155C176.172 94.0613 175.809 94.1342 175.371 94.1342ZM175.873 92.6577C176.254 92.6577 176.579 92.5549 176.848 92.3494C177.116 92.1406 177.32 91.8506 177.459 91.4794C177.598 91.1082 177.668 90.6757 177.668 90.1818C177.668 89.688 177.598 89.2588 177.459 88.8942C177.323 88.5296 177.121 88.2462 176.853 88.044C176.587 87.8419 176.261 87.7408 175.873 87.7408C175.472 87.7408 175.137 87.8452 174.869 88.054C174.601 88.2628 174.398 88.5511 174.262 88.919C174.127 89.2869 174.059 89.7079 174.059 90.1818C174.059 90.6591 174.127 91.085 174.262 91.4595C174.402 91.8307 174.605 92.1241 174.874 92.3395C175.146 92.5516 175.479 92.6577 175.873 92.6577ZM183.413 94.1541C182.929 94.1541 182.493 94.0679 182.106 93.8956C181.721 93.7199 181.416 93.4614 181.191 93.12C180.969 92.7786 180.858 92.3577 180.858 91.8572C180.858 91.4264 180.937 91.0701 181.096 90.7884C181.255 90.5066 181.473 90.2812 181.748 90.1122C182.023 89.9432 182.333 89.8156 182.677 89.7294C183.025 89.6399 183.385 89.5753 183.756 89.5355C184.204 89.4891 184.567 89.4477 184.845 89.4112C185.123 89.3714 185.326 89.3118 185.451 89.2322C185.581 89.1494 185.645 89.0218 185.645 88.8494V88.8196C185.645 88.4451 185.534 88.1551 185.312 87.9496C185.09 87.7441 184.77 87.6413 184.353 87.6413C183.912 87.6413 183.562 87.7375 183.304 87.9297C183.049 88.1219 182.876 88.349 182.787 88.6108L181.106 88.3722C181.239 87.9081 181.458 87.5204 181.763 87.2088C182.067 86.8939 182.44 86.6586 182.881 86.5028C183.322 86.3438 183.809 86.2642 184.343 86.2642C184.711 86.2642 185.077 86.3073 185.442 86.3935C185.806 86.4796 186.139 86.6222 186.441 86.821C186.742 87.0166 186.984 87.2834 187.167 87.6214C187.352 87.9595 187.445 88.3821 187.445 88.8892V94H185.715V92.951H185.655C185.546 93.1631 185.392 93.362 185.193 93.5476C184.997 93.7299 184.75 93.8774 184.452 93.9901C184.157 94.0994 183.811 94.1541 183.413 94.1541ZM183.88 92.8317C184.242 92.8317 184.555 92.7604 184.82 92.6179C185.085 92.4721 185.289 92.2798 185.432 92.0412C185.577 91.8026 185.65 91.5424 185.65 91.2607V90.3608C185.594 90.4072 185.498 90.4503 185.362 90.4901C185.229 90.5298 185.08 90.5646 184.915 90.5945C184.749 90.6243 184.585 90.6508 184.422 90.674C184.26 90.6972 184.119 90.7171 184 90.7337C183.731 90.7701 183.491 90.8298 183.279 90.9126C183.067 90.9955 182.899 91.1115 182.777 91.2607C182.654 91.4065 182.593 91.5954 182.593 91.8274C182.593 92.1589 182.714 92.4091 182.956 92.5781C183.198 92.7472 183.506 92.8317 183.88 92.8317ZM190.755 91.6037L190.75 89.4311H191.039L193.783 86.3636H195.886L192.51 90.1222H192.137L190.755 91.6037ZM189.115 94V83.8182H190.914V94H189.115ZM193.907 94L191.422 90.5249L192.635 89.2571L196.06 94H193.907ZM200.278 94V86.3636H202.023V87.6364H202.103C202.242 87.1955 202.48 86.8558 202.819 86.6172C203.16 86.3752 203.549 86.2543 203.987 86.2543C204.086 86.2543 204.197 86.2592 204.32 86.2692C204.446 86.2758 204.55 86.2874 204.633 86.304V87.9595C204.557 87.933 204.436 87.9098 204.27 87.8899C204.108 87.8667 203.95 87.8551 203.798 87.8551C203.47 87.8551 203.175 87.9264 202.913 88.0689C202.654 88.2081 202.451 88.402 202.302 88.6506C202.152 88.8991 202.078 89.1858 202.078 89.5107V94H200.278ZM208.755 94.1491C207.989 94.1491 207.328 93.9901 206.771 93.6719C206.218 93.3504 205.792 92.8963 205.494 92.3097C205.195 91.7197 205.046 91.0253 205.046 90.2266C205.046 89.4411 205.195 88.7517 205.494 88.1584C205.795 87.5618 206.216 87.0978 206.757 86.7663C207.297 86.4316 207.931 86.2642 208.661 86.2642C209.131 86.2642 209.575 86.3404 209.993 86.4929C210.414 86.642 210.785 86.8741 211.107 87.1889C211.431 87.5038 211.687 87.9048 211.872 88.392C212.058 88.8759 212.151 89.4527 212.151 90.1222V90.674H205.891V89.4609H210.426C210.422 89.1162 210.348 88.8097 210.202 88.5412C210.056 88.2694 209.852 88.0556 209.59 87.8999C209.332 87.7441 209.03 87.6662 208.685 87.6662C208.318 87.6662 207.994 87.7557 207.716 87.9347C207.438 88.1103 207.221 88.3423 207.065 88.6307C206.912 88.9157 206.834 89.2289 206.831 89.5703V90.6293C206.831 91.0734 206.912 91.4545 207.075 91.7727C207.237 92.0876 207.464 92.3295 207.756 92.4986C208.047 92.6643 208.389 92.7472 208.78 92.7472C209.042 92.7472 209.279 92.7107 209.491 92.6378C209.703 92.5616 209.887 92.4505 210.043 92.3047C210.199 92.1589 210.316 91.9782 210.396 91.7628L212.076 91.9517C211.97 92.3958 211.768 92.7836 211.47 93.1151C211.175 93.4432 210.797 93.6984 210.336 93.8807C209.875 94.0597 209.348 94.1491 208.755 94.1491ZM215.333 83.8182V94H213.533V83.8182H215.333ZM220.424 94.1491C219.659 94.1491 218.997 93.9901 218.441 93.6719C217.887 93.3504 217.461 92.8963 217.163 92.3097C216.865 91.7197 216.715 91.0253 216.715 90.2266C216.715 89.4411 216.865 88.7517 217.163 88.1584C217.465 87.5618 217.885 87.0978 218.426 86.7663C218.966 86.4316 219.601 86.2642 220.33 86.2642C220.8 86.2642 221.245 86.3404 221.662 86.4929C222.083 86.642 222.454 86.8741 222.776 87.1889C223.101 87.5038 223.356 87.9048 223.541 88.392C223.727 88.8759 223.82 89.4527 223.82 90.1222V90.674H217.561V89.4609H222.095C222.091 89.1162 222.017 88.8097 221.871 88.5412C221.725 88.2694 221.521 88.0556 221.26 87.8999C221.001 87.7441 220.699 87.6662 220.355 87.6662C219.987 87.6662 219.664 87.7557 219.385 87.9347C219.107 88.1103 218.89 88.3423 218.734 88.6307C218.582 88.9157 218.504 89.2289 218.5 89.5703V90.6293C218.5 91.0734 218.582 91.4545 218.744 91.7727C218.906 92.0876 219.133 92.3295 219.425 92.4986C219.717 92.6643 220.058 92.7472 220.449 92.7472C220.711 92.7472 220.948 92.7107 221.16 92.6378C221.372 92.5616 221.556 92.4505 221.712 92.3047C221.868 92.1589 221.985 91.9782 222.065 91.7628L223.745 91.9517C223.639 92.3958 223.437 92.7836 223.139 93.1151C222.844 93.4432 222.466 93.6984 222.005 93.8807C221.545 94.0597 221.018 94.1491 220.424 94.1491ZM231.805 86.3636L229.085 94H227.097L224.377 86.3636H226.296L228.051 92.0362H228.131L229.891 86.3636H231.805ZM234.889 94.1541C234.405 94.1541 233.969 94.0679 233.581 93.8956C233.197 93.7199 232.892 93.4614 232.666 93.12C232.444 92.7786 232.333 92.3577 232.333 91.8572C232.333 91.4264 232.413 91.0701 232.572 90.7884C232.731 90.5066 232.948 90.2812 233.223 90.1122C233.498 89.9432 233.808 89.8156 234.153 89.7294C234.501 89.6399 234.861 89.5753 235.232 89.5355C235.679 89.4891 236.042 89.4477 236.321 89.4112C236.599 89.3714 236.801 89.3118 236.927 89.2322C237.056 89.1494 237.121 89.0218 237.121 88.8494V88.8196C237.121 88.4451 237.01 88.1551 236.788 87.9496C236.566 87.7441 236.246 87.6413 235.828 87.6413C235.388 87.6413 235.038 87.7375 234.779 87.9297C234.524 88.1219 234.352 88.349 234.262 88.6108L232.582 88.3722C232.715 87.9081 232.933 87.5204 233.238 87.2088C233.543 86.8939 233.916 86.6586 234.357 86.5028C234.798 86.3438 235.285 86.2642 235.818 86.2642C236.186 86.2642 236.553 86.3073 236.917 86.3935C237.282 86.4796 237.615 86.6222 237.916 86.821C238.218 87.0166 238.46 87.2834 238.642 87.6214C238.828 87.9595 238.921 88.3821 238.921 88.8892V94H237.191V92.951H237.131C237.022 93.1631 236.867 93.362 236.669 93.5476C236.473 93.7299 236.226 93.8774 235.928 93.9901C235.633 94.0994 235.287 94.1541 234.889 94.1541ZM235.356 92.8317C235.717 92.8317 236.031 92.7604 236.296 92.6179C236.561 92.4721 236.765 92.2798 236.907 92.0412C237.053 91.8026 237.126 91.5424 237.126 91.2607V90.3608C237.07 90.4072 236.974 90.4503 236.838 90.4901C236.705 90.5298 236.556 90.5646 236.39 90.5945C236.224 90.6243 236.06 90.6508 235.898 90.674C235.736 90.6972 235.595 90.7171 235.475 90.7337C235.207 90.7701 234.967 90.8298 234.755 90.9126C234.542 90.9955 234.375 91.1115 234.252 91.2607C234.13 91.4065 234.068 91.5954 234.068 91.8274C234.068 92.1589 234.189 92.4091 234.431 92.5781C234.673 92.7472 234.982 92.8317 235.356 92.8317ZM242.39 89.5256V94H240.59V86.3636H242.311V87.6612H242.4C242.576 87.2337 242.856 86.8939 243.24 86.642C243.628 86.3902 244.107 86.2642 244.677 86.2642C245.204 86.2642 245.663 86.3769 246.054 86.6023C246.449 86.8277 246.754 87.1541 246.969 87.5817C247.188 88.0092 247.295 88.5279 247.292 89.1378V94H245.492V89.4162C245.492 88.9058 245.36 88.5064 245.095 88.218C244.833 87.9297 244.47 87.7855 244.006 87.7855C243.691 87.7855 243.411 87.8551 243.166 87.9943C242.924 88.1302 242.733 88.3274 242.594 88.5859C242.458 88.8445 242.39 89.1577 242.39 89.5256Z" fill="#5A5A5A"/>
<rect x="20.5" y="116.5" width="144" height="35" rx="17.5" fill="white"/>
<rect x="20.5" y="116.5" width="144" height="35" rx="17.5" stroke="#E7E7E7"/>
<path d="M36.5568 129.364V127.818H44.6804V129.364H41.5334V138H39.7038V129.364H36.5568ZM46.0269 138V130.364H47.8266V138H46.0269ZM46.9317 129.28C46.6467 129.28 46.4014 129.185 46.1959 128.996C45.9904 128.804 45.8877 128.574 45.8877 128.305C45.8877 128.034 45.9904 127.803 46.1959 127.614C46.4014 127.422 46.6467 127.326 46.9317 127.326C47.2201 127.326 47.4654 127.422 47.6675 127.614C47.873 127.803 47.9758 128.034 47.9758 128.305C47.9758 128.574 47.873 128.804 47.6675 128.996C47.4654 129.185 47.2201 129.28 46.9317 129.28ZM52.3711 138.134C51.7712 138.134 51.2343 137.98 50.7603 137.672C50.2863 137.364 49.9118 136.916 49.6367 136.33C49.3616 135.743 49.2241 135.03 49.2241 134.192C49.2241 133.343 49.3633 132.627 49.6417 132.044C49.9234 131.457 50.3029 131.015 50.7802 130.717C51.2575 130.415 51.7894 130.264 52.3761 130.264C52.8235 130.264 53.1914 130.34 53.4798 130.493C53.7681 130.642 53.9968 130.823 54.1658 131.035C54.3349 131.244 54.4658 131.441 54.5586 131.626H54.6332V127.818H56.4379V138H54.668V136.797H54.5586C54.4658 136.982 54.3316 137.18 54.1559 137.388C53.9802 137.594 53.7482 137.77 53.4599 137.915C53.1715 138.061 52.8086 138.134 52.3711 138.134ZM52.8732 136.658C53.2544 136.658 53.5792 136.555 53.8477 136.349C54.1161 136.141 54.32 135.851 54.4592 135.479C54.5984 135.108 54.668 134.676 54.668 134.182C54.668 133.688 54.5984 133.259 54.4592 132.894C54.3233 132.53 54.1211 132.246 53.8526 132.044C53.5875 131.842 53.261 131.741 52.8732 131.741C52.4722 131.741 52.1374 131.845 51.869 132.054C51.6005 132.263 51.3983 132.551 51.2624 132.919C51.1265 133.287 51.0586 133.708 51.0586 134.182C51.0586 134.659 51.1265 135.085 51.2624 135.46C51.4016 135.831 51.6055 136.124 51.8739 136.339C52.1457 136.552 52.4788 136.658 52.8732 136.658ZM60.4131 138.154C59.9292 138.154 59.4934 138.068 59.1056 137.896C58.7211 137.72 58.4162 137.461 58.1908 137.12C57.9687 136.779 57.8577 136.358 57.8577 135.857C57.8577 135.426 57.9372 135.07 58.0963 134.788C58.2554 134.507 58.4725 134.281 58.7476 134.112C59.0227 133.943 59.3326 133.816 59.6773 133.729C60.0253 133.64 60.3849 133.575 60.7561 133.536C61.2036 133.489 61.5665 133.448 61.8449 133.411C62.1233 133.371 62.3255 133.312 62.4514 133.232C62.5807 133.149 62.6453 133.022 62.6453 132.849V132.82C62.6453 132.445 62.5343 132.155 62.3122 131.95C62.0902 131.744 61.7703 131.641 61.3527 131.641C60.9119 131.641 60.5622 131.737 60.3037 131.93C60.0485 132.122 59.8762 132.349 59.7867 132.611L58.1063 132.372C58.2389 131.908 58.4576 131.52 58.7625 131.209C59.0675 130.894 59.4403 130.659 59.8811 130.503C60.322 130.344 60.8092 130.264 61.3428 130.264C61.7107 130.264 62.0769 130.307 62.4415 130.393C62.8061 130.48 63.1392 130.622 63.4408 130.821C63.7424 131.017 63.9844 131.283 64.1666 131.621C64.3523 131.96 64.4451 132.382 64.4451 132.889V138H62.7149V136.951H62.6553C62.5459 137.163 62.3918 137.362 62.1929 137.548C61.9974 137.73 61.7505 137.877 61.4522 137.99C61.1572 138.099 60.8108 138.154 60.4131 138.154ZM60.8804 136.832C61.2417 136.832 61.5549 136.76 61.8201 136.618C62.0852 136.472 62.289 136.28 62.4316 136.041C62.5774 135.803 62.6503 135.542 62.6503 135.261V134.361C62.594 134.407 62.4979 134.45 62.362 134.49C62.2294 134.53 62.0802 134.565 61.9145 134.594C61.7488 134.624 61.5847 134.651 61.4223 134.674C61.2599 134.697 61.1191 134.717 60.9997 134.734C60.7313 134.77 60.491 134.83 60.2789 134.913C60.0667 134.996 59.8994 135.112 59.7767 135.261C59.6541 135.406 59.5928 135.595 59.5928 135.827C59.5928 136.159 59.7138 136.409 59.9557 136.578C60.1977 136.747 60.5059 136.832 60.8804 136.832ZM67.7553 135.604L67.7504 133.431H68.0387L70.783 130.364H72.886L69.5103 134.122H69.1374L67.7553 135.604ZM66.1147 138V127.818H67.9144V138H66.1147ZM70.9073 138L68.4215 134.525L69.6346 133.257L73.06 138H70.9073ZM77.2781 138V130.364H78.9982V131.661H79.0877C79.2468 131.224 79.5103 130.882 79.8782 130.637C80.2461 130.388 80.6853 130.264 81.1957 130.264C81.7127 130.264 82.1486 130.39 82.5032 130.642C82.8612 130.891 83.1131 131.23 83.2589 131.661H83.3384C83.5075 131.237 83.7925 130.899 84.1936 130.647C84.5979 130.392 85.0768 130.264 85.6303 130.264C86.333 130.264 86.9064 130.486 87.3505 130.93C87.7946 131.375 88.0167 132.022 88.0167 132.874V138H86.212V133.153C86.212 132.679 86.0861 132.332 85.8342 132.114C85.5823 131.892 85.2741 131.781 84.9095 131.781C84.4753 131.781 84.1356 131.916 83.8903 132.188C83.6483 132.457 83.5274 132.806 83.5274 133.237V138H81.7625V133.078C81.7625 132.684 81.6431 132.369 81.4045 132.134C81.1692 131.898 80.8609 131.781 80.4798 131.781C80.2213 131.781 79.9859 131.847 79.7738 131.979C79.5617 132.109 79.3927 132.293 79.2667 132.531C79.1408 132.767 79.0778 133.042 79.0778 133.357V138H77.2781ZM93.0832 138.149C92.3176 138.149 91.6564 137.99 91.0995 137.672C90.546 137.35 90.1201 136.896 89.8218 136.31C89.5236 135.72 89.3744 135.025 89.3744 134.227C89.3744 133.441 89.5236 132.752 89.8218 132.158C90.1235 131.562 90.5444 131.098 91.0846 130.766C91.6249 130.432 92.2596 130.264 92.9888 130.264C93.4594 130.264 93.9035 130.34 94.3211 130.493C94.7421 130.642 95.1133 130.874 95.4348 131.189C95.7596 131.504 96.0148 131.905 96.2004 132.392C96.386 132.876 96.4788 133.453 96.4788 134.122V134.674H90.2196V133.461H94.7537C94.7504 133.116 94.6758 132.81 94.5299 132.541C94.3841 132.269 94.1803 132.056 93.9184 131.9C93.6599 131.744 93.3583 131.666 93.0136 131.666C92.6457 131.666 92.3226 131.756 92.0441 131.935C91.7657 132.11 91.5486 132.342 91.3929 132.631C91.2404 132.916 91.1625 133.229 91.1592 133.57V134.629C91.1592 135.073 91.2404 135.455 91.4028 135.773C91.5652 136.088 91.7923 136.33 92.0839 136.499C92.3756 136.664 92.717 136.747 93.1081 136.747C93.3699 136.747 93.6069 136.711 93.819 136.638C94.0311 136.562 94.2151 136.451 94.3709 136.305C94.5266 136.159 94.6443 135.978 94.7238 135.763L96.4042 135.952C96.2982 136.396 96.096 136.784 95.7977 137.115C95.5027 137.443 95.1249 137.698 94.6642 137.881C94.2035 138.06 93.6765 138.149 93.0832 138.149ZM97.8614 138V130.364H99.5815V131.661H99.671C99.8301 131.224 100.094 130.882 100.461 130.637C100.829 130.388 101.269 130.264 101.779 130.264C102.296 130.264 102.732 130.39 103.086 130.642C103.444 130.891 103.696 131.23 103.842 131.661H103.922C104.091 131.237 104.376 130.899 104.777 130.647C105.181 130.392 105.66 130.264 106.214 130.264C106.916 130.264 107.49 130.486 107.934 130.93C108.378 131.375 108.6 132.022 108.6 132.874V138H106.795V133.153C106.795 132.679 106.669 132.332 106.417 132.114C106.166 131.892 105.857 131.781 105.493 131.781C105.059 131.781 104.719 131.916 104.474 132.188C104.232 132.457 104.111 132.806 104.111 133.237V138H102.346V133.078C102.346 132.684 102.226 132.369 101.988 132.134C101.752 131.898 101.444 131.781 101.063 131.781C100.805 131.781 100.569 131.847 100.357 131.979C100.145 132.109 99.9759 132.293 99.85 132.531C99.724 132.767 99.6611 133.042 99.6611 133.357V138H97.8614ZM110.365 138V127.818H112.165V131.626H112.24C112.332 131.441 112.463 131.244 112.632 131.035C112.801 130.823 113.03 130.642 113.318 130.493C113.607 130.34 113.975 130.264 114.422 130.264C115.012 130.264 115.544 130.415 116.018 130.717C116.495 131.015 116.873 131.457 117.152 132.044C117.433 132.627 117.574 133.343 117.574 134.192C117.574 135.03 117.437 135.743 117.162 136.33C116.886 136.916 116.512 137.364 116.038 137.672C115.564 137.98 115.027 138.134 114.427 138.134C113.99 138.134 113.627 138.061 113.338 137.915C113.05 137.77 112.818 137.594 112.642 137.388C112.47 137.18 112.336 136.982 112.24 136.797H112.135V138H110.365ZM112.13 134.182C112.13 134.676 112.2 135.108 112.339 135.479C112.482 135.851 112.685 136.141 112.951 136.349C113.219 136.555 113.544 136.658 113.925 136.658C114.323 136.658 114.656 136.552 114.924 136.339C115.193 136.124 115.395 135.831 115.531 135.46C115.67 135.085 115.74 134.659 115.74 134.182C115.74 133.708 115.672 133.287 115.536 132.919C115.4 132.551 115.198 132.263 114.929 132.054C114.661 131.845 114.326 131.741 113.925 131.741C113.541 131.741 113.214 131.842 112.946 132.044C112.677 132.246 112.473 132.53 112.334 132.894C112.198 133.259 112.13 133.688 112.13 134.182ZM121.162 138.154C120.678 138.154 120.242 138.068 119.854 137.896C119.47 137.72 119.165 137.461 118.939 137.12C118.717 136.779 118.606 136.358 118.606 135.857C118.606 135.426 118.686 135.07 118.845 134.788C119.004 134.507 119.221 134.281 119.496 134.112C119.771 133.943 120.081 133.816 120.426 133.729C120.774 133.64 121.133 133.575 121.505 133.536C121.952 133.489 122.315 133.448 122.593 133.411C122.872 133.371 123.074 133.312 123.2 133.232C123.329 133.149 123.394 133.022 123.394 132.849V132.82C123.394 132.445 123.283 132.155 123.061 131.95C122.839 131.744 122.519 131.641 122.101 131.641C121.66 131.641 121.311 131.737 121.052 131.93C120.797 132.122 120.625 132.349 120.535 132.611L118.855 132.372C118.987 131.908 119.206 131.52 119.511 131.209C119.816 130.894 120.189 130.659 120.63 130.503C121.07 130.344 121.558 130.264 122.091 130.264C122.459 130.264 122.825 130.307 123.19 130.393C123.555 130.48 123.888 130.622 124.189 130.821C124.491 131.017 124.733 131.283 124.915 131.621C125.101 131.96 125.194 132.382 125.194 132.889V138H123.463V136.951H123.404C123.294 137.163 123.14 137.362 122.941 137.548C122.746 137.73 122.499 137.877 122.201 137.99C121.906 138.099 121.559 138.154 121.162 138.154ZM121.629 136.832C121.99 136.832 122.303 136.76 122.569 136.618C122.834 136.472 123.038 136.28 123.18 136.041C123.326 135.803 123.399 135.542 123.399 135.261V134.361C123.342 134.407 123.246 134.45 123.11 134.49C122.978 134.53 122.829 134.565 122.663 134.594C122.497 134.624 122.333 134.651 122.171 134.674C122.008 134.697 121.868 134.717 121.748 134.734C121.48 134.77 121.239 134.83 121.027 134.913C120.815 134.996 120.648 135.112 120.525 135.261C120.403 135.406 120.341 135.595 120.341 135.827C120.341 136.159 120.462 136.409 120.704 136.578C120.946 136.747 121.254 136.832 121.629 136.832ZM128.663 133.526V138H126.863V130.364H128.583V131.661H128.673C128.849 131.234 129.129 130.894 129.513 130.642C129.901 130.39 130.38 130.264 130.95 130.264C131.477 130.264 131.936 130.377 132.327 130.602C132.721 130.828 133.026 131.154 133.242 131.582C133.461 132.009 133.568 132.528 133.565 133.138V138H131.765V133.416C131.765 132.906 131.633 132.506 131.367 132.218C131.106 131.93 130.743 131.786 130.279 131.786C129.964 131.786 129.684 131.855 129.439 131.994C129.197 132.13 129.006 132.327 128.867 132.586C128.731 132.844 128.663 133.158 128.663 133.526ZM139.068 130.364V131.756H134.678V130.364H139.068ZM135.762 128.534H137.561V135.703C137.561 135.945 137.598 136.131 137.671 136.26C137.747 136.386 137.846 136.472 137.969 136.518C138.092 136.565 138.227 136.588 138.377 136.588C138.489 136.588 138.592 136.58 138.685 136.563C138.781 136.547 138.854 136.532 138.904 136.518L139.207 137.925C139.111 137.959 138.973 137.995 138.794 138.035C138.619 138.075 138.403 138.098 138.148 138.104C137.697 138.118 137.291 138.05 136.93 137.901C136.569 137.748 136.282 137.513 136.07 137.195C135.861 136.876 135.758 136.479 135.762 136.001V128.534ZM145.3 134.788V130.364H147.1V138H145.355V136.643H145.275C145.103 137.07 144.819 137.42 144.425 137.692C144.034 137.964 143.552 138.099 142.978 138.099C142.478 138.099 142.035 137.988 141.651 137.766C141.27 137.541 140.971 137.214 140.756 136.787C140.541 136.356 140.433 135.836 140.433 135.226V130.364H142.233V134.947C142.233 135.431 142.365 135.816 142.63 136.101C142.895 136.386 143.243 136.528 143.674 136.528C143.939 136.528 144.196 136.464 144.445 136.335C144.693 136.205 144.897 136.013 145.056 135.758C145.219 135.499 145.3 135.176 145.3 134.788Z" fill="#5A5A5A"/>
<rect x="173.5" y="116.5" width="117" height="35" rx="17.5" fill="white"/>
<rect x="173.5" y="116.5" width="117" height="35" rx="17.5" stroke="#E7E7E7"/>
<path d="M190.004 138V127.818H191.849V132.496H191.973L195.945 127.818H198.197L194.26 132.387L198.232 138H196.015L192.977 133.635L191.849 134.967V138H190.004ZM202.079 138.149C201.314 138.149 200.653 137.99 200.096 137.672C199.542 137.35 199.116 136.896 198.818 136.31C198.52 135.72 198.371 135.025 198.371 134.227C198.371 133.441 198.52 132.752 198.818 132.158C199.12 131.562 199.541 131.098 200.081 130.766C200.621 130.432 201.256 130.264 201.985 130.264C202.456 130.264 202.9 130.34 203.317 130.493C203.738 130.642 204.11 130.874 204.431 131.189C204.756 131.504 205.011 131.905 205.197 132.392C205.382 132.876 205.475 133.453 205.475 134.122V134.674H199.216V133.461H203.75C203.747 133.116 203.672 132.81 203.526 132.541C203.38 132.269 203.177 132.056 202.915 131.9C202.656 131.744 202.355 131.666 202.01 131.666C201.642 131.666 201.319 131.756 201.04 131.935C200.762 132.11 200.545 132.342 200.389 132.631C200.237 132.916 200.159 133.229 200.155 133.57V134.629C200.155 135.073 200.237 135.455 200.399 135.773C200.561 136.088 200.789 136.33 201.08 136.499C201.372 136.664 201.713 136.747 202.104 136.747C202.366 136.747 202.603 136.711 202.815 136.638C203.027 136.562 203.211 136.451 203.367 136.305C203.523 136.159 203.641 135.978 203.72 135.763L205.4 135.952C205.294 136.396 205.092 136.784 204.794 137.115C204.499 137.443 204.121 137.698 203.66 137.881C203.2 138.06 202.673 138.149 202.079 138.149ZM209.691 138.134C209.092 138.134 208.555 137.98 208.081 137.672C207.607 137.364 207.232 136.916 206.957 136.33C206.682 135.743 206.544 135.03 206.544 134.192C206.544 133.343 206.684 132.627 206.962 132.044C207.244 131.457 207.623 131.015 208.101 130.717C208.578 130.415 209.11 130.264 209.696 130.264C210.144 130.264 210.512 130.34 210.8 130.493C211.088 130.642 211.317 130.823 211.486 131.035C211.655 131.244 211.786 131.441 211.879 131.626H211.953V127.818H213.758V138H211.988V136.797H211.879C211.786 136.982 211.652 137.18 211.476 137.388C211.301 137.594 211.069 137.77 210.78 137.915C210.492 138.061 210.129 138.134 209.691 138.134ZM210.194 136.658C210.575 136.658 210.9 136.555 211.168 136.349C211.436 136.141 211.64 135.851 211.779 135.479C211.919 135.108 211.988 134.676 211.988 134.182C211.988 133.688 211.919 133.259 211.779 132.894C211.644 132.53 211.441 132.246 211.173 132.044C210.908 131.842 210.581 131.741 210.194 131.741C209.793 131.741 209.458 131.845 209.189 132.054C208.921 132.263 208.719 132.551 208.583 132.919C208.447 133.287 208.379 133.708 208.379 134.182C208.379 134.659 208.447 135.085 208.583 135.46C208.722 135.831 208.926 136.124 209.194 136.339C209.466 136.552 209.799 136.658 210.194 136.658ZM217.733 138.154C217.25 138.154 216.814 138.068 216.426 137.896C216.041 137.72 215.736 137.461 215.511 137.12C215.289 136.779 215.178 136.358 215.178 135.857C215.178 135.426 215.258 135.07 215.417 134.788C215.576 134.507 215.793 134.281 216.068 134.112C216.343 133.943 216.653 133.816 216.998 133.729C217.346 133.64 217.705 133.575 218.076 133.536C218.524 133.489 218.887 133.448 219.165 133.411C219.444 133.371 219.646 133.312 219.772 133.232C219.901 133.149 219.966 133.022 219.966 132.849V132.82C219.966 132.445 219.855 132.155 219.633 131.95C219.41 131.744 219.091 131.641 218.673 131.641C218.232 131.641 217.883 131.737 217.624 131.93C217.369 132.122 217.196 132.349 217.107 132.611L215.427 132.372C215.559 131.908 215.778 131.52 216.083 131.209C216.388 130.894 216.761 130.659 217.201 130.503C217.642 130.344 218.129 130.264 218.663 130.264C219.031 130.264 219.397 130.307 219.762 130.393C220.126 130.48 220.459 130.622 220.761 130.821C221.063 131.017 221.305 131.283 221.487 131.621C221.673 131.96 221.765 132.382 221.765 132.889V138H220.035V136.951H219.976C219.866 137.163 219.712 137.362 219.513 137.548C219.318 137.73 219.071 137.877 218.772 137.99C218.477 138.099 218.131 138.154 217.733 138.154ZM218.201 136.832C218.562 136.832 218.875 136.76 219.14 136.618C219.406 136.472 219.609 136.28 219.752 136.041C219.898 135.803 219.971 135.542 219.971 135.261V134.361C219.914 134.407 219.818 134.45 219.682 134.49C219.55 134.53 219.401 134.565 219.235 134.594C219.069 134.624 218.905 134.651 218.743 134.674C218.58 134.697 218.439 134.717 218.32 134.734C218.052 134.77 217.811 134.83 217.599 134.913C217.387 134.996 217.22 135.112 217.097 135.261C216.974 135.406 216.913 135.595 216.913 135.827C216.913 136.159 217.034 136.409 217.276 136.578C217.518 136.747 217.826 136.832 218.201 136.832ZM225.235 127.818V138H223.435V127.818H225.235ZM231.813 134.788V130.364H233.612V138H231.867V136.643H231.788C231.615 137.07 231.332 137.42 230.938 137.692C230.547 137.964 230.064 138.099 229.491 138.099C228.99 138.099 228.548 137.988 228.163 137.766C227.782 137.541 227.484 137.214 227.269 136.787C227.053 136.356 226.945 135.836 226.945 135.226V130.364H228.745V134.947C228.745 135.431 228.878 135.816 229.143 136.101C229.408 136.386 229.756 136.528 230.187 136.528C230.452 136.528 230.709 136.464 230.957 136.335C231.206 136.205 231.41 136.013 231.569 135.758C231.731 135.499 231.813 135.176 231.813 134.788ZM236.899 138L234.741 130.364H236.576L237.918 135.733H237.988L239.36 130.364H241.175L242.547 135.703H242.621L243.944 130.364H245.783L243.621 138H241.746L240.314 132.839H240.21L238.778 138H236.899ZM249.097 138.154C248.613 138.154 248.177 138.068 247.79 137.896C247.405 137.72 247.1 137.461 246.875 137.12C246.653 136.779 246.542 136.358 246.542 135.857C246.542 135.426 246.621 135.07 246.78 134.788C246.94 134.507 247.157 134.281 247.432 134.112C247.707 133.943 248.017 133.816 248.361 133.729C248.709 133.64 249.069 133.575 249.44 133.536C249.888 133.489 250.251 133.448 250.529 133.411C250.807 133.371 251.01 133.312 251.136 133.232C251.265 133.149 251.329 133.022 251.329 132.849V132.82C251.329 132.445 251.218 132.155 250.996 131.95C250.774 131.744 250.454 131.641 250.037 131.641C249.596 131.641 249.246 131.737 248.988 131.93C248.733 132.122 248.56 132.349 248.471 132.611L246.79 132.372C246.923 131.908 247.142 131.52 247.447 131.209C247.752 130.894 248.124 130.659 248.565 130.503C249.006 130.344 249.493 130.264 250.027 130.264C250.395 130.264 250.761 130.307 251.126 130.393C251.49 130.48 251.823 130.622 252.125 130.821C252.427 131.017 252.668 131.283 252.851 131.621C253.036 131.96 253.129 132.382 253.129 132.889V138H251.399V136.951H251.339C251.23 137.163 251.076 137.362 250.877 137.548C250.682 137.73 250.435 137.877 250.136 137.99C249.841 138.099 249.495 138.154 249.097 138.154ZM249.565 136.832C249.926 136.832 250.239 136.76 250.504 136.618C250.769 136.472 250.973 136.28 251.116 136.041C251.262 135.803 251.334 135.542 251.334 135.261V134.361C251.278 134.407 251.182 134.45 251.046 134.49C250.914 134.53 250.764 134.565 250.599 134.594C250.433 134.624 250.269 134.651 250.106 134.674C249.944 134.697 249.803 134.717 249.684 134.734C249.415 134.77 249.175 134.83 248.963 134.913C248.751 134.996 248.584 135.112 248.461 135.261C248.338 135.406 248.277 135.595 248.277 135.827C248.277 136.159 248.398 136.409 248.64 136.578C248.882 136.747 249.19 136.832 249.565 136.832ZM254.799 138V130.364H256.544V131.636H256.623C256.763 131.196 257.001 130.856 257.339 130.617C257.681 130.375 258.07 130.254 258.508 130.254C258.607 130.254 258.718 130.259 258.841 130.269C258.967 130.276 259.071 130.287 259.154 130.304V131.96C259.078 131.933 258.957 131.91 258.791 131.89C258.629 131.867 258.471 131.855 258.319 131.855C257.991 131.855 257.696 131.926 257.434 132.069C257.175 132.208 256.971 132.402 256.822 132.651C256.673 132.899 256.599 133.186 256.599 133.511V138H254.799ZM266.245 132.382L264.605 132.561C264.558 132.395 264.477 132.24 264.361 132.094C264.248 131.948 264.096 131.83 263.904 131.741C263.711 131.651 263.476 131.607 263.198 131.607C262.823 131.607 262.508 131.688 262.253 131.85C262.001 132.013 261.877 132.223 261.88 132.482C261.877 132.704 261.958 132.884 262.124 133.023C262.293 133.163 262.571 133.277 262.959 133.366L264.261 133.645C264.984 133.801 265.521 134.048 265.872 134.386C266.227 134.724 266.406 135.166 266.409 135.713C266.406 136.194 266.265 136.618 265.987 136.986C265.712 137.35 265.329 137.635 264.838 137.841C264.348 138.046 263.784 138.149 263.148 138.149C262.213 138.149 261.461 137.954 260.891 137.562C260.321 137.168 259.981 136.62 259.872 135.917L261.627 135.748C261.706 136.093 261.875 136.353 262.134 136.528C262.392 136.704 262.729 136.792 263.143 136.792C263.57 136.792 263.913 136.704 264.172 136.528C264.434 136.353 264.565 136.136 264.565 135.877C264.565 135.658 264.48 135.478 264.311 135.335C264.145 135.193 263.887 135.083 263.536 135.007L262.233 134.734C261.501 134.581 260.959 134.324 260.607 133.963C260.256 133.598 260.082 133.138 260.085 132.581C260.082 132.11 260.21 131.703 260.468 131.358C260.73 131.01 261.093 130.741 261.557 130.553C262.024 130.36 262.563 130.264 263.173 130.264C264.068 130.264 264.772 130.455 265.286 130.836C265.803 131.217 266.123 131.732 266.245 132.382ZM269.951 138.154C269.467 138.154 269.031 138.068 268.643 137.896C268.259 137.72 267.954 137.461 267.728 137.12C267.506 136.779 267.395 136.358 267.395 135.857C267.395 135.426 267.475 135.07 267.634 134.788C267.793 134.507 268.01 134.281 268.285 134.112C268.56 133.943 268.87 133.816 269.215 133.729C269.563 133.64 269.923 133.575 270.294 133.536C270.741 133.489 271.104 133.448 271.382 133.411C271.661 133.371 271.863 133.312 271.989 133.232C272.118 133.149 272.183 133.022 272.183 132.849V132.82C272.183 132.445 272.072 132.155 271.85 131.95C271.628 131.744 271.308 131.641 270.89 131.641C270.449 131.641 270.1 131.737 269.841 131.93C269.586 132.122 269.414 132.349 269.324 132.611L267.644 132.372C267.776 131.908 267.995 131.52 268.3 131.209C268.605 130.894 268.978 130.659 269.419 130.503C269.86 130.344 270.347 130.264 270.88 130.264C271.248 130.264 271.614 130.307 271.979 130.393C272.344 130.48 272.677 130.622 272.978 130.821C273.28 131.017 273.522 131.283 273.704 131.621C273.89 131.96 273.983 132.382 273.983 132.889V138H272.253V136.951H272.193C272.083 137.163 271.929 137.362 271.731 137.548C271.535 137.73 271.288 137.877 270.99 137.99C270.695 138.099 270.348 138.154 269.951 138.154ZM270.418 136.832C270.779 136.832 271.092 136.76 271.358 136.618C271.623 136.472 271.827 136.28 271.969 136.041C272.115 135.803 272.188 135.542 272.188 135.261V134.361C272.132 134.407 272.035 134.45 271.9 134.49C271.767 134.53 271.618 134.565 271.452 134.594C271.286 134.624 271.122 134.651 270.96 134.674C270.798 134.697 270.657 134.717 270.537 134.734C270.269 134.77 270.029 134.83 269.816 134.913C269.604 134.996 269.437 135.112 269.314 135.261C269.192 135.406 269.13 135.595 269.13 135.827C269.13 136.159 269.251 136.409 269.493 136.578C269.735 136.747 270.043 136.832 270.418 136.832Z" fill="#5A5A5A"/>
<rect x="20.5" y="160.5" width="99" height="35" rx="17.5" fill="white"/>
<rect x="20.5" y="160.5" width="99" height="35" rx="17.5" stroke="#E7E7E7"/>
<path d="M38.8487 171.818V182H37.0043V171.818H38.8487ZM46.662 176.382L45.0214 176.561C44.975 176.395 44.8938 176.24 44.7778 176.094C44.6651 175.948 44.5126 175.83 44.3204 175.741C44.1282 175.651 43.8928 175.607 43.6144 175.607C43.2399 175.607 42.925 175.688 42.6698 175.85C42.4179 176.013 42.2937 176.223 42.297 176.482C42.2937 176.704 42.3749 176.884 42.5406 177.023C42.7096 177.163 42.988 177.277 43.3758 177.366L44.6784 177.645C45.4009 177.801 45.9378 178.048 46.2892 178.386C46.6438 178.724 46.8228 179.166 46.8261 179.713C46.8228 180.194 46.6819 180.618 46.4035 180.986C46.1284 181.35 45.7456 181.635 45.2551 181.841C44.7645 182.046 44.2011 182.149 43.5647 182.149C42.6301 182.149 41.8777 181.954 41.3076 181.562C40.7375 181.168 40.3978 180.62 40.2884 179.917L42.0434 179.748C42.123 180.093 42.292 180.353 42.5505 180.528C42.809 180.704 43.1455 180.792 43.5598 180.792C43.9873 180.792 44.3303 180.704 44.5889 180.528C44.8507 180.353 44.9816 180.136 44.9816 179.877C44.9816 179.658 44.8971 179.478 44.7281 179.335C44.5624 179.193 44.3038 179.083 43.9525 179.007L42.65 178.734C41.9175 178.581 41.3756 178.324 41.0242 177.963C40.6729 177.598 40.4989 177.138 40.5022 176.581C40.4989 176.11 40.6265 175.703 40.885 175.358C41.1469 175.01 41.5098 174.741 41.9738 174.553C42.4411 174.36 42.9797 174.264 43.5896 174.264C44.4845 174.264 45.1888 174.455 45.7025 174.836C46.2196 175.217 46.5394 175.732 46.662 176.382ZM53.0373 178.788V174.364H54.837V182H53.092V180.643H53.0124C52.8401 181.07 52.5567 181.42 52.1623 181.692C51.7712 181.964 51.289 182.099 50.7156 182.099C50.2151 182.099 49.7726 181.988 49.3881 181.766C49.007 181.541 48.7087 181.214 48.4933 180.787C48.2778 180.356 48.1701 179.836 48.1701 179.226V174.364H49.9698V178.947C49.9698 179.431 50.1024 179.816 50.3676 180.101C50.6327 180.386 50.9807 180.528 51.4116 180.528C51.6767 180.528 51.9336 180.464 52.1822 180.335C52.4308 180.205 52.6346 180.013 52.7937 179.758C52.9561 179.499 53.0373 179.176 53.0373 178.788ZM59.8803 184.864V174.364H61.6502V175.626H61.7546C61.8474 175.441 61.9784 175.244 62.1474 175.035C62.3164 174.823 62.5451 174.642 62.8335 174.493C63.1218 174.34 63.4897 174.264 63.9372 174.264C64.5271 174.264 65.0591 174.415 65.533 174.717C66.0103 175.015 66.3882 175.457 66.6666 176.044C66.9483 176.627 67.0891 177.343 67.0891 178.192C67.0891 179.03 66.9516 179.743 66.6765 180.33C66.4014 180.916 66.0269 181.364 65.5529 181.672C65.079 181.98 64.542 182.134 63.9421 182.134C63.5046 182.134 63.1417 182.061 62.8534 181.915C62.565 181.77 62.333 181.594 62.1573 181.388C61.985 181.18 61.8507 180.982 61.7546 180.797H61.6801V184.864H59.8803ZM61.6453 178.182C61.6453 178.676 61.7149 179.108 61.8541 179.479C61.9966 179.851 62.2004 180.141 62.4656 180.349C62.734 180.555 63.0588 180.658 63.44 180.658C63.8377 180.658 64.1708 180.552 64.4393 180.339C64.7078 180.124 64.9099 179.831 65.0458 179.46C65.185 179.085 65.2546 178.659 65.2546 178.182C65.2546 177.708 65.1867 177.287 65.0508 176.919C64.9149 176.551 64.7127 176.263 64.4443 176.054C64.1758 175.845 63.841 175.741 63.44 175.741C63.0555 175.741 62.7291 175.842 62.4606 176.044C62.1921 176.246 61.9883 176.53 61.8491 176.894C61.7132 177.259 61.6453 177.688 61.6453 178.182ZM68.4903 182V174.364H70.2354V175.636H70.3149C70.4541 175.196 70.6928 174.856 71.0308 174.617C71.3722 174.375 71.7616 174.254 72.1991 174.254C72.2986 174.254 72.4096 174.259 72.5322 174.269C72.6582 174.276 72.7626 174.287 72.8455 174.304V175.96C72.7692 175.933 72.6482 175.91 72.4825 175.89C72.3201 175.867 72.1627 175.855 72.0102 175.855C71.6821 175.855 71.3871 175.926 71.1253 176.069C70.8668 176.208 70.6629 176.402 70.5138 176.651C70.3646 176.899 70.2901 177.186 70.2901 177.511V182H68.4903ZM73.9011 182V174.364H75.7008V182H73.9011ZM74.806 173.28C74.5209 173.28 74.2756 173.185 74.0702 172.996C73.8647 172.804 73.7619 172.574 73.7619 172.305C73.7619 172.034 73.8647 171.803 74.0702 171.614C74.2756 171.422 74.5209 171.326 74.806 171.326C75.0943 171.326 75.3396 171.422 75.5417 171.614C75.7472 171.803 75.85 172.034 75.85 172.305C75.85 172.574 75.7472 172.804 75.5417 172.996C75.3396 173.185 75.0943 173.28 74.806 173.28ZM84.2325 174.364L81.5131 182H79.5244L76.805 174.364H78.724L80.479 180.036H80.5585L82.3185 174.364H84.2325ZM87.3166 182.154C86.8327 182.154 86.3969 182.068 86.0091 181.896C85.6246 181.72 85.3197 181.461 85.0943 181.12C84.8722 180.779 84.7612 180.358 84.7612 179.857C84.7612 179.426 84.8408 179.07 84.9999 178.788C85.1589 178.507 85.376 178.281 85.6511 178.112C85.9262 177.943 86.2361 177.816 86.5808 177.729C86.9288 177.64 87.2884 177.575 87.6597 177.536C88.1071 177.489 88.47 177.448 88.7484 177.411C89.0268 177.371 89.229 177.312 89.355 177.232C89.4842 177.149 89.5489 177.022 89.5489 176.849V176.82C89.5489 176.445 89.4378 176.155 89.2158 175.95C88.9937 175.744 88.6739 175.641 88.2562 175.641C87.8154 175.641 87.4658 175.737 87.2072 175.93C86.952 176.122 86.7797 176.349 86.6902 176.611L85.0098 176.372C85.1424 175.908 85.3611 175.52 85.666 175.209C85.971 174.894 86.3438 174.659 86.7847 174.503C87.2255 174.344 87.7127 174.264 88.2463 174.264C88.6142 174.264 88.9804 174.307 89.345 174.393C89.7096 174.48 90.0427 174.622 90.3443 174.821C90.6459 175.017 90.8879 175.283 91.0702 175.621C91.2558 175.96 91.3486 176.382 91.3486 176.889V182H89.6185V180.951H89.5588C89.4494 181.163 89.2953 181.362 89.0964 181.548C88.9009 181.73 88.654 181.877 88.3557 181.99C88.0607 182.099 87.7143 182.154 87.3166 182.154ZM87.7839 180.832C88.1452 180.832 88.4584 180.76 88.7236 180.618C88.9887 180.472 89.1926 180.28 89.3351 180.041C89.4809 179.803 89.5538 179.542 89.5538 179.261V178.361C89.4975 178.407 89.4014 178.45 89.2655 178.49C89.1329 178.53 88.9838 178.565 88.818 178.594C88.6523 178.624 88.4883 178.651 88.3258 178.674C88.1634 178.697 88.0226 178.717 87.9033 178.734C87.6348 178.77 87.3945 178.83 87.1824 178.913C86.9703 178.996 86.8029 179.112 86.6802 179.261C86.5576 179.406 86.4963 179.595 86.4963 179.827C86.4963 180.159 86.6173 180.409 86.8592 180.578C87.1012 180.747 87.4094 180.832 87.7839 180.832ZM99.0537 176.382L97.4131 176.561C97.3667 176.395 97.2855 176.24 97.1695 176.094C97.0568 175.948 96.9044 175.83 96.7121 175.741C96.5199 175.651 96.2846 175.607 96.0062 175.607C95.6316 175.607 95.3168 175.688 95.0616 175.85C94.8097 176.013 94.6854 176.223 94.6887 176.482C94.6854 176.704 94.7666 176.884 94.9323 177.023C95.1013 177.163 95.3797 177.277 95.7675 177.366L97.0701 177.645C97.7926 177.801 98.3295 178.048 98.6809 178.386C99.0355 178.724 99.2145 179.166 99.2178 179.713C99.2145 180.194 99.0736 180.618 98.7952 180.986C98.5201 181.35 98.1373 181.635 97.6468 181.841C97.1563 182.046 96.5928 182.149 95.9564 182.149C95.0218 182.149 94.2694 181.954 93.6993 181.562C93.1293 181.168 92.7895 180.62 92.6802 179.917L94.4351 179.748C94.5147 180.093 94.6837 180.353 94.9422 180.528C95.2008 180.704 95.5372 180.792 95.9515 180.792C96.379 180.792 96.7221 180.704 96.9806 180.528C97.2424 180.353 97.3733 180.136 97.3733 179.877C97.3733 179.658 97.2888 179.478 97.1198 179.335C96.9541 179.193 96.6956 179.083 96.3442 179.007L95.0417 178.734C94.3092 178.581 93.7673 178.324 93.416 177.963C93.0646 177.598 92.8906 177.138 92.8939 176.581C92.8906 176.11 93.0182 175.703 93.2768 175.358C93.5386 175.01 93.9015 174.741 94.3655 174.553C94.8329 174.36 95.3715 174.264 95.9813 174.264C96.8762 174.264 97.5805 174.455 98.0942 174.836C98.6113 175.217 98.9311 175.732 99.0537 176.382ZM100.562 182V174.364H102.362V182H100.562ZM101.467 173.28C101.182 173.28 100.936 173.185 100.731 172.996C100.525 172.804 100.423 172.574 100.423 172.305C100.423 172.034 100.525 171.803 100.731 171.614C100.936 171.422 101.182 171.326 101.467 171.326C101.755 171.326 102 171.422 102.202 171.614C102.408 171.803 102.511 172.034 102.511 172.305C102.511 172.574 102.408 172.804 102.202 172.996C102 173.185 101.755 173.28 101.467 173.28Z" fill="#5A5A5A"/>
<rect x="128.5" y="160.5" width="129" height="35" rx="17.5" fill="white"/>
<rect x="128.5" y="160.5" width="129" height="35" rx="17.5" stroke="#E7E7E7"/>
<path d="M144.557 173.364V171.818H152.68V173.364H149.533V182H147.704V173.364H144.557ZM156.3 182.149C155.535 182.149 154.873 181.99 154.316 181.672C153.763 181.35 153.337 180.896 153.039 180.31C152.741 179.72 152.591 179.025 152.591 178.227C152.591 177.441 152.741 176.752 153.039 176.158C153.34 175.562 153.761 175.098 154.302 174.766C154.842 174.432 155.477 174.264 156.206 174.264C156.676 174.264 157.12 174.34 157.538 174.493C157.959 174.642 158.33 174.874 158.652 175.189C158.977 175.504 159.232 175.905 159.417 176.392C159.603 176.876 159.696 177.453 159.696 178.122V178.674H153.437V177.461H157.971C157.967 177.116 157.893 176.81 157.747 176.541C157.601 176.269 157.397 176.056 157.135 175.9C156.877 175.744 156.575 175.666 156.231 175.666C155.863 175.666 155.54 175.756 155.261 175.935C154.983 176.11 154.766 176.342 154.61 176.631C154.457 176.916 154.379 177.229 154.376 177.57V178.629C154.376 179.073 154.457 179.455 154.62 179.773C154.782 180.088 155.009 180.33 155.301 180.499C155.593 180.664 155.934 180.747 156.325 180.747C156.587 180.747 156.824 180.711 157.036 180.638C157.248 180.562 157.432 180.451 157.588 180.305C157.744 180.159 157.861 179.978 157.941 179.763L159.621 179.952C159.515 180.396 159.313 180.784 159.015 181.115C158.72 181.443 158.342 181.698 157.881 181.881C157.42 182.06 156.893 182.149 156.3 182.149ZM161.078 182V174.364H162.823V175.636H162.903C163.042 175.196 163.281 174.856 163.619 174.617C163.96 174.375 164.35 174.254 164.787 174.254C164.887 174.254 164.998 174.259 165.12 174.269C165.246 174.276 165.351 174.287 165.433 174.304V175.96C165.357 175.933 165.236 175.91 165.07 175.89C164.908 175.867 164.751 175.855 164.598 175.855C164.27 175.855 163.975 175.926 163.713 176.069C163.455 176.208 163.251 176.402 163.102 176.651C162.953 176.899 162.878 177.186 162.878 177.511V182H161.078ZM168.289 171.818V182H166.489V171.818H168.289ZM172.197 182.154C171.713 182.154 171.277 182.068 170.889 181.896C170.505 181.72 170.2 181.461 169.975 181.12C169.753 180.779 169.642 180.358 169.642 179.857C169.642 179.426 169.721 179.07 169.88 178.788C170.039 178.507 170.256 178.281 170.531 178.112C170.807 177.943 171.116 177.816 171.461 177.729C171.809 177.64 172.169 177.575 172.54 177.536C172.987 177.489 173.35 177.448 173.629 177.411C173.907 177.371 174.109 177.312 174.235 177.232C174.365 177.149 174.429 177.022 174.429 176.849V176.82C174.429 176.445 174.318 176.155 174.096 175.95C173.874 175.744 173.554 175.641 173.137 175.641C172.696 175.641 172.346 175.737 172.088 175.93C171.832 176.122 171.66 176.349 171.571 176.611L169.89 176.372C170.023 175.908 170.241 175.52 170.546 175.209C170.851 174.894 171.224 174.659 171.665 174.503C172.106 174.344 172.593 174.264 173.127 174.264C173.495 174.264 173.861 174.307 174.225 174.393C174.59 174.48 174.923 174.622 175.225 174.821C175.526 175.017 175.768 175.283 175.95 175.621C176.136 175.96 176.229 176.382 176.229 176.889V182H174.499V180.951H174.439C174.33 181.163 174.176 181.362 173.977 181.548C173.781 181.73 173.534 181.877 173.236 181.99C172.941 182.099 172.595 182.154 172.197 182.154ZM172.664 180.832C173.026 180.832 173.339 180.76 173.604 180.618C173.869 180.472 174.073 180.28 174.215 180.041C174.361 179.803 174.434 179.542 174.434 179.261V178.361C174.378 178.407 174.282 178.45 174.146 178.49C174.013 178.53 173.864 178.565 173.698 178.594C173.533 178.624 173.369 178.651 173.206 178.674C173.044 178.697 172.903 178.717 172.784 178.734C172.515 178.77 172.275 178.83 172.063 178.913C171.851 178.996 171.683 179.112 171.561 179.261C171.438 179.406 171.377 179.595 171.377 179.827C171.377 180.159 171.498 180.409 171.74 180.578C171.981 180.747 172.29 180.832 172.664 180.832ZM179.698 171.818V182H177.899V171.818H179.698ZM186.276 178.788V174.364H188.076V182H186.331V180.643H186.251C186.079 181.07 185.796 181.42 185.401 181.692C185.01 181.964 184.528 182.099 183.954 182.099C183.454 182.099 183.011 181.988 182.627 181.766C182.246 181.541 181.948 181.214 181.732 180.787C181.517 180.356 181.409 179.836 181.409 179.226V174.364H183.209V178.947C183.209 179.431 183.341 179.816 183.606 180.101C183.872 180.386 184.22 180.528 184.65 180.528C184.916 180.528 185.172 180.464 185.421 180.335C185.67 180.205 185.873 180.013 186.033 179.758C186.195 179.499 186.276 179.176 186.276 178.788ZM199.155 176.382L197.514 176.561C197.468 176.395 197.386 176.24 197.27 176.094C197.158 175.948 197.005 175.83 196.813 175.741C196.621 175.651 196.386 175.607 196.107 175.607C195.733 175.607 195.418 175.688 195.162 175.85C194.911 176.013 194.786 176.223 194.79 176.482C194.786 176.704 194.868 176.884 195.033 177.023C195.202 177.163 195.481 177.277 195.868 177.366L197.171 177.645C197.894 177.801 198.43 178.048 198.782 178.386C199.136 178.724 199.315 179.166 199.319 179.713C199.315 180.194 199.175 180.618 198.896 180.986C198.621 181.35 198.238 181.635 197.748 181.841C197.257 182.046 196.694 182.149 196.057 182.149C195.123 182.149 194.37 181.954 193.8 181.562C193.23 181.168 192.89 180.62 192.781 179.917L194.536 179.748C194.616 180.093 194.785 180.353 195.043 180.528C195.302 180.704 195.638 180.792 196.052 180.792C196.48 180.792 196.823 180.704 197.082 180.528C197.343 180.353 197.474 180.136 197.474 179.877C197.474 179.658 197.39 179.478 197.221 179.335C197.055 179.193 196.796 179.083 196.445 179.007L195.143 178.734C194.41 178.581 193.868 178.324 193.517 177.963C193.166 177.598 192.992 177.138 192.995 176.581C192.992 176.11 193.119 175.703 193.378 175.358C193.64 175.01 194.002 174.741 194.466 174.553C194.934 174.36 195.472 174.264 196.082 174.264C196.977 174.264 197.681 174.455 198.195 174.836C198.712 175.217 199.032 175.732 199.155 176.382ZM200.663 182V174.364H202.462V182H200.663ZM201.568 173.28C201.283 173.28 201.037 173.185 200.832 172.996C200.626 172.804 200.524 172.574 200.524 172.305C200.524 172.034 200.626 171.803 200.832 171.614C201.037 171.422 201.283 171.326 201.568 171.326C201.856 171.326 202.101 171.422 202.303 171.614C202.509 171.803 202.612 172.034 202.612 172.305C202.612 172.574 202.509 172.804 202.303 172.996C202.101 173.185 201.856 173.28 201.568 173.28ZM205.973 177.526V182H204.173V174.364H205.893V175.661H205.983C206.158 175.234 206.439 174.894 206.823 174.642C207.211 174.39 207.69 174.264 208.26 174.264C208.787 174.264 209.246 174.377 209.637 174.602C210.031 174.828 210.336 175.154 210.552 175.582C210.77 176.009 210.878 176.528 210.875 177.138V182H209.075V177.416C209.075 176.906 208.943 176.506 208.677 176.218C208.416 175.93 208.053 175.786 207.589 175.786C207.274 175.786 206.994 175.855 206.748 175.994C206.506 176.13 206.316 176.327 206.177 176.586C206.041 176.844 205.973 177.158 205.973 177.526ZM215.885 185.023C215.239 185.023 214.684 184.935 214.22 184.759C213.756 184.587 213.383 184.355 213.101 184.063C212.82 183.772 212.624 183.448 212.515 183.094L214.135 182.701C214.208 182.85 214.314 182.998 214.454 183.143C214.593 183.293 214.78 183.415 215.015 183.511C215.254 183.611 215.554 183.661 215.915 183.661C216.426 183.661 216.848 183.536 217.183 183.288C217.518 183.042 217.685 182.638 217.685 182.075V180.628H217.596C217.503 180.813 217.367 181.004 217.188 181.2C217.012 181.395 216.779 181.559 216.487 181.692C216.199 181.824 215.836 181.891 215.398 181.891C214.812 181.891 214.28 181.753 213.802 181.478C213.328 181.2 212.951 180.785 212.669 180.235C212.39 179.682 212.251 178.989 212.251 178.157C212.251 177.318 212.39 176.611 212.669 176.034C212.951 175.454 213.33 175.015 213.807 174.717C214.285 174.415 214.817 174.264 215.403 174.264C215.851 174.264 216.219 174.34 216.507 174.493C216.799 174.642 217.031 174.823 217.203 175.035C217.375 175.244 217.506 175.441 217.596 175.626H217.695V174.364H219.47V182.124C219.47 182.777 219.314 183.317 219.003 183.745C218.691 184.173 218.265 184.492 217.725 184.705C217.185 184.917 216.572 185.023 215.885 185.023ZM215.9 180.479C216.281 180.479 216.606 180.386 216.875 180.2C217.143 180.015 217.347 179.748 217.486 179.4C217.625 179.052 217.695 178.634 217.695 178.147C217.695 177.666 217.625 177.246 217.486 176.884C217.35 176.523 217.148 176.243 216.88 176.044C216.615 175.842 216.288 175.741 215.9 175.741C215.499 175.741 215.165 175.845 214.896 176.054C214.628 176.263 214.425 176.549 214.29 176.914C214.154 177.275 214.086 177.686 214.086 178.147C214.086 178.614 214.154 179.024 214.29 179.375C214.429 179.723 214.633 179.995 214.901 180.19C215.173 180.383 215.506 180.479 215.9 180.479ZM222.815 179.604L222.81 177.431H223.098L225.843 174.364H227.946L224.57 178.122H224.197L222.815 179.604ZM221.174 182V171.818H222.974V182H221.174ZM225.967 182L223.481 178.525L224.694 177.257L228.12 182H225.967ZM231.203 182.154C230.719 182.154 230.283 182.068 229.895 181.896C229.511 181.72 229.206 181.461 228.98 181.12C228.758 180.779 228.647 180.358 228.647 179.857C228.647 179.426 228.727 179.07 228.886 178.788C229.045 178.507 229.262 178.281 229.537 178.112C229.812 177.943 230.122 177.816 230.467 177.729C230.815 177.64 231.174 177.575 231.546 177.536C231.993 177.489 232.356 177.448 232.634 177.411C232.913 177.371 233.115 177.312 233.241 177.232C233.37 177.149 233.435 177.022 233.435 176.849V176.82C233.435 176.445 233.324 176.155 233.102 175.95C232.88 175.744 232.56 175.641 232.142 175.641C231.701 175.641 231.352 175.737 231.093 175.93C230.838 176.122 230.666 176.349 230.576 176.611L228.896 176.372C229.028 175.908 229.247 175.52 229.552 175.209C229.857 174.894 230.23 174.659 230.671 174.503C231.111 174.344 231.599 174.264 232.132 174.264C232.5 174.264 232.866 174.307 233.231 174.393C233.596 174.48 233.929 174.622 234.23 174.821C234.532 175.017 234.774 175.283 234.956 175.621C235.142 175.96 235.235 176.382 235.235 176.889V182H233.504V180.951H233.445C233.335 181.163 233.181 181.362 232.982 181.548C232.787 181.73 232.54 181.877 232.242 181.99C231.947 182.099 231.6 182.154 231.203 182.154ZM231.67 180.832C232.031 180.832 232.344 180.76 232.61 180.618C232.875 180.472 233.078 180.28 233.221 180.041C233.367 179.803 233.44 179.542 233.44 179.261V178.361C233.383 178.407 233.287 178.45 233.151 178.49C233.019 178.53 232.87 178.565 232.704 178.594C232.538 178.624 232.374 178.651 232.212 178.674C232.049 178.697 231.909 178.717 231.789 178.734C231.521 178.77 231.28 178.83 231.068 178.913C230.856 178.996 230.689 179.112 230.566 179.261C230.444 179.406 230.382 179.595 230.382 179.827C230.382 180.159 230.503 180.409 230.745 180.578C230.987 180.747 231.295 180.832 231.67 180.832ZM240.717 174.364V175.756H236.327V174.364H240.717ZM237.411 172.534H239.211V179.703C239.211 179.945 239.247 180.131 239.32 180.26C239.397 180.386 239.496 180.472 239.619 180.518C239.741 180.565 239.877 180.588 240.026 180.588C240.139 180.588 240.242 180.58 240.335 180.563C240.431 180.547 240.504 180.532 240.553 180.518L240.857 181.925C240.76 181.959 240.623 181.995 240.444 182.035C240.268 182.075 240.053 182.098 239.798 182.104C239.347 182.118 238.941 182.05 238.58 181.901C238.218 181.748 237.932 181.513 237.72 181.195C237.511 180.876 237.408 180.479 237.411 180.001V172.534Z" fill="#5A5A5A"/>
<rect x="20.5" y="212.5" width="287" height="79" rx="11.5" stroke="#E7E7E7"/>
<path d="M20 320C20 313.373 25.3726 308 32 308H296C302.627 308 308 313.373 308 320V336C308 342.627 302.627 348 296 348H32C25.3726 348 20 342.627 20 336V320Z" fill="#F3F3F3"/>
<path d="M109.648 334V322.364H111.756V327.71H111.898L116.438 322.364H119.011L114.511 327.585L119.051 334H116.517L113.045 329.011L111.756 330.534V334H109.648ZM120.612 334V325.273H122.669V334H120.612ZM121.646 324.034C121.32 324.034 121.04 323.926 120.805 323.71C120.57 323.491 120.453 323.227 120.453 322.92C120.453 322.61 120.57 322.347 120.805 322.131C121.04 321.911 121.32 321.801 121.646 321.801C121.975 321.801 122.256 321.911 122.487 322.131C122.722 322.347 122.839 322.61 122.839 322.92C122.839 323.227 122.722 323.491 122.487 323.71C122.256 323.926 121.975 324.034 121.646 324.034ZM124.464 334V325.273H126.458V326.727H126.549C126.708 326.223 126.981 325.835 127.367 325.562C127.757 325.286 128.202 325.148 128.702 325.148C128.816 325.148 128.943 325.153 129.083 325.165C129.227 325.172 129.346 325.186 129.441 325.205V327.097C129.354 327.066 129.216 327.04 129.026 327.017C128.841 326.991 128.661 326.977 128.486 326.977C128.111 326.977 127.774 327.059 127.475 327.222C127.18 327.381 126.947 327.602 126.776 327.886C126.606 328.17 126.521 328.498 126.521 328.869V334H124.464ZM130.487 334V325.273H132.544V334H130.487ZM131.522 324.034C131.196 324.034 130.915 323.926 130.681 323.71C130.446 323.491 130.328 323.227 130.328 322.92C130.328 322.61 130.446 322.347 130.681 322.131C130.915 321.911 131.196 321.801 131.522 321.801C131.851 321.801 132.131 321.911 132.362 322.131C132.597 322.347 132.715 322.61 132.715 322.92C132.715 323.227 132.597 323.491 132.362 323.71C132.131 323.926 131.851 324.034 131.522 324.034ZM134.339 334V325.273H136.305V326.756H136.407C136.589 326.256 136.89 325.866 137.311 325.585C137.731 325.301 138.233 325.159 138.817 325.159C139.407 325.159 139.906 325.303 140.311 325.591C140.72 325.875 141.008 326.263 141.175 326.756H141.265C141.459 326.271 141.784 325.884 142.243 325.597C142.705 325.305 143.252 325.159 143.885 325.159C144.688 325.159 145.343 325.413 145.851 325.92C146.358 326.428 146.612 327.169 146.612 328.142V334H144.55V328.46C144.55 327.919 144.406 327.523 144.118 327.273C143.83 327.019 143.478 326.892 143.061 326.892C142.565 326.892 142.176 327.047 141.896 327.358C141.62 327.665 141.481 328.064 141.481 328.557V334H139.464V328.375C139.464 327.924 139.328 327.564 139.055 327.295C138.786 327.027 138.434 326.892 137.998 326.892C137.703 326.892 137.434 326.968 137.192 327.119C136.949 327.267 136.756 327.477 136.612 327.75C136.468 328.019 136.396 328.333 136.396 328.693V334H134.339ZM152.027 334V325.273H153.993V326.756H154.096C154.277 326.256 154.579 325.866 154.999 325.585C155.419 325.301 155.921 325.159 156.505 325.159C157.096 325.159 157.594 325.303 157.999 325.591C158.408 325.875 158.696 326.263 158.863 326.756H158.954C159.147 326.271 159.473 325.884 159.931 325.597C160.393 325.305 160.94 325.159 161.573 325.159C162.376 325.159 163.031 325.413 163.539 325.92C164.046 326.428 164.3 327.169 164.3 328.142V334H162.238V328.46C162.238 327.919 162.094 327.523 161.806 327.273C161.518 327.019 161.166 326.892 160.749 326.892C160.253 326.892 159.865 327.047 159.584 327.358C159.308 327.665 159.169 328.064 159.169 328.557V334H157.152V328.375C157.152 327.924 157.016 327.564 156.743 327.295C156.474 327.027 156.122 326.892 155.687 326.892C155.391 326.892 155.122 326.968 154.88 327.119C154.637 327.267 154.444 327.477 154.3 327.75C154.156 328.019 154.084 328.333 154.084 328.693V334H152.027ZM168.578 334.176C168.025 334.176 167.527 334.078 167.084 333.881C166.644 333.68 166.296 333.384 166.038 332.994C165.785 332.604 165.658 332.123 165.658 331.551C165.658 331.059 165.749 330.652 165.93 330.33C166.112 330.008 166.36 329.75 166.675 329.557C166.989 329.364 167.343 329.218 167.737 329.119C168.135 329.017 168.546 328.943 168.97 328.898C169.482 328.845 169.896 328.797 170.215 328.756C170.533 328.71 170.764 328.642 170.908 328.551C171.055 328.456 171.129 328.311 171.129 328.114V328.08C171.129 327.652 171.002 327.32 170.749 327.085C170.495 326.85 170.129 326.733 169.652 326.733C169.148 326.733 168.749 326.843 168.453 327.062C168.162 327.282 167.965 327.542 167.862 327.841L165.942 327.568C166.093 327.038 166.343 326.595 166.692 326.239C167.04 325.879 167.466 325.61 167.97 325.432C168.474 325.25 169.031 325.159 169.641 325.159C170.061 325.159 170.48 325.208 170.896 325.307C171.313 325.405 171.694 325.568 172.038 325.795C172.383 326.019 172.66 326.324 172.868 326.71C173.08 327.097 173.186 327.58 173.186 328.159V334H171.209V332.801H171.141C171.016 333.044 170.84 333.271 170.612 333.483C170.389 333.691 170.107 333.86 169.766 333.989C169.429 334.114 169.033 334.176 168.578 334.176ZM169.112 332.665C169.525 332.665 169.883 332.583 170.186 332.42C170.489 332.254 170.722 332.034 170.885 331.761C171.052 331.489 171.135 331.191 171.135 330.869V329.841C171.071 329.894 170.961 329.943 170.805 329.989C170.654 330.034 170.483 330.074 170.294 330.108C170.105 330.142 169.917 330.172 169.732 330.199C169.546 330.225 169.385 330.248 169.249 330.267C168.942 330.309 168.667 330.377 168.425 330.472C168.182 330.566 167.991 330.699 167.851 330.869C167.711 331.036 167.641 331.252 167.641 331.517C167.641 331.896 167.779 332.182 168.055 332.375C168.332 332.568 168.684 332.665 169.112 332.665ZM181.832 327.58L179.957 327.784C179.904 327.595 179.811 327.417 179.679 327.25C179.55 327.083 179.376 326.949 179.156 326.847C178.936 326.744 178.667 326.693 178.349 326.693C177.921 326.693 177.561 326.786 177.27 326.972C176.982 327.157 176.84 327.398 176.843 327.693C176.84 327.947 176.932 328.153 177.122 328.312C177.315 328.472 177.633 328.602 178.076 328.705L179.565 329.023C180.391 329.201 181.004 329.483 181.406 329.869C181.811 330.256 182.016 330.761 182.02 331.386C182.016 331.936 181.855 332.42 181.537 332.841C181.222 333.258 180.785 333.583 180.224 333.818C179.663 334.053 179.02 334.17 178.292 334.17C177.224 334.17 176.364 333.947 175.713 333.5C175.061 333.049 174.673 332.422 174.548 331.619L176.554 331.426C176.645 331.82 176.838 332.117 177.133 332.318C177.429 332.519 177.813 332.619 178.287 332.619C178.775 332.619 179.167 332.519 179.463 332.318C179.762 332.117 179.912 331.869 179.912 331.574C179.912 331.324 179.815 331.117 179.622 330.955C179.432 330.792 179.137 330.667 178.735 330.58L177.247 330.267C176.41 330.093 175.79 329.799 175.389 329.386C174.987 328.97 174.788 328.443 174.792 327.807C174.788 327.269 174.934 326.803 175.23 326.409C175.529 326.011 175.944 325.705 176.474 325.489C177.008 325.269 177.624 325.159 178.321 325.159C179.343 325.159 180.148 325.377 180.735 325.812C181.326 326.248 181.692 326.837 181.832 327.58ZM188.958 330.33V325.273H191.015V334H189.021V332.449H188.93C188.733 332.937 188.409 333.337 187.958 333.648C187.511 333.958 186.96 334.114 186.305 334.114C185.733 334.114 185.227 333.987 184.788 333.733C184.352 333.475 184.011 333.102 183.765 332.614C183.519 332.121 183.396 331.527 183.396 330.83V325.273H185.452V330.511C185.452 331.064 185.604 331.504 185.907 331.83C186.21 332.155 186.608 332.318 187.1 332.318C187.403 332.318 187.697 332.244 187.981 332.097C188.265 331.949 188.498 331.729 188.68 331.438C188.865 331.142 188.958 330.773 188.958 330.33ZM194.685 331.261L194.679 328.778H195.009L198.145 325.273H200.549L196.691 329.568H196.264L194.685 331.261ZM192.81 334V322.364H194.867V334H192.81ZM198.287 334L195.446 330.028L196.833 328.58L200.747 334H198.287ZM204.111 334.176C203.558 334.176 203.06 334.078 202.616 333.881C202.177 333.68 201.828 333.384 201.571 332.994C201.317 332.604 201.19 332.123 201.19 331.551C201.19 331.059 201.281 330.652 201.463 330.33C201.645 330.008 201.893 329.75 202.207 329.557C202.522 329.364 202.876 329.218 203.27 329.119C203.668 329.017 204.078 328.943 204.503 328.898C205.014 328.845 205.429 328.797 205.747 328.756C206.065 328.71 206.296 328.642 206.44 328.551C206.588 328.456 206.662 328.311 206.662 328.114V328.08C206.662 327.652 206.535 327.32 206.281 327.085C206.027 326.85 205.662 326.733 205.185 326.733C204.681 326.733 204.281 326.843 203.986 327.062C203.694 327.282 203.497 327.542 203.395 327.841L201.474 327.568C201.626 327.038 201.876 326.595 202.224 326.239C202.573 325.879 202.999 325.61 203.503 325.432C204.007 325.25 204.563 325.159 205.173 325.159C205.594 325.159 206.012 325.208 206.429 325.307C206.846 325.405 207.226 325.568 207.571 325.795C207.916 326.019 208.192 326.324 208.4 326.71C208.613 327.097 208.719 327.58 208.719 328.159V334H206.741V332.801H206.673C206.548 333.044 206.372 333.271 206.145 333.483C205.921 333.691 205.639 333.86 205.298 333.989C204.961 334.114 204.565 334.176 204.111 334.176ZM204.645 332.665C205.058 332.665 205.416 332.583 205.719 332.42C206.022 332.254 206.255 332.034 206.418 331.761C206.584 331.489 206.668 331.191 206.668 330.869V329.841C206.603 329.894 206.493 329.943 206.338 329.989C206.186 330.034 206.016 330.074 205.827 330.108C205.637 330.142 205.45 330.172 205.264 330.199C205.078 330.225 204.918 330.248 204.781 330.267C204.474 330.309 204.2 330.377 203.957 330.472C203.715 330.566 203.524 330.699 203.383 330.869C203.243 331.036 203.173 331.252 203.173 331.517C203.173 331.896 203.311 332.182 203.588 332.375C203.864 332.568 204.217 332.665 204.645 332.665ZM212.524 328.886V334H210.467V325.273H212.433V326.756H212.535C212.736 326.267 213.056 325.879 213.495 325.591C213.938 325.303 214.486 325.159 215.137 325.159C215.74 325.159 216.264 325.288 216.711 325.545C217.162 325.803 217.51 326.176 217.757 326.665C218.007 327.153 218.13 327.746 218.126 328.443V334H216.069V328.761C216.069 328.178 215.918 327.722 215.615 327.392C215.315 327.062 214.901 326.898 214.37 326.898C214.01 326.898 213.69 326.977 213.41 327.136C213.133 327.292 212.916 327.517 212.757 327.812C212.601 328.108 212.524 328.466 212.524 328.886Z" fill="#B8B8B8"/>
<path d="M146.148 386V374.364H150.602C151.443 374.364 152.142 374.496 152.699 374.761C153.259 375.023 153.678 375.381 153.955 375.835C154.235 376.29 154.375 376.805 154.375 377.381C154.375 377.854 154.284 378.259 154.102 378.597C153.92 378.93 153.676 379.201 153.369 379.409C153.062 379.617 152.72 379.767 152.341 379.858V379.972C152.754 379.994 153.15 380.121 153.528 380.352C153.911 380.58 154.223 380.902 154.466 381.318C154.708 381.735 154.83 382.239 154.83 382.83C154.83 383.432 154.684 383.973 154.392 384.455C154.1 384.932 153.661 385.309 153.074 385.585C152.487 385.862 151.748 386 150.858 386H146.148ZM148.256 384.239H150.523C151.288 384.239 151.839 384.093 152.176 383.801C152.517 383.506 152.688 383.127 152.688 382.665C152.688 382.32 152.602 382.009 152.432 381.733C152.261 381.453 152.019 381.233 151.705 381.074C151.39 380.911 151.015 380.83 150.58 380.83H148.256V384.239ZM148.256 379.312H150.341C150.705 379.312 151.032 379.246 151.324 379.114C151.616 378.977 151.845 378.786 152.011 378.54C152.182 378.29 152.267 377.994 152.267 377.653C152.267 377.203 152.108 376.831 151.79 376.54C151.475 376.248 151.008 376.102 150.386 376.102H148.256V379.312ZM158.764 386.176C158.211 386.176 157.713 386.078 157.269 385.881C156.83 385.68 156.482 385.384 156.224 384.994C155.97 384.604 155.843 384.123 155.843 383.551C155.843 383.059 155.934 382.652 156.116 382.33C156.298 382.008 156.546 381.75 156.86 381.557C157.175 381.364 157.529 381.218 157.923 381.119C158.321 381.017 158.732 380.943 159.156 380.898C159.667 380.845 160.082 380.797 160.4 380.756C160.718 380.71 160.949 380.642 161.093 380.551C161.241 380.456 161.315 380.311 161.315 380.114V380.08C161.315 379.652 161.188 379.32 160.934 379.085C160.68 378.85 160.315 378.733 159.838 378.733C159.334 378.733 158.934 378.843 158.639 379.062C158.347 379.282 158.15 379.542 158.048 379.841L156.127 379.568C156.279 379.038 156.529 378.595 156.877 378.239C157.226 377.879 157.652 377.61 158.156 377.432C158.66 377.25 159.216 377.159 159.826 377.159C160.247 377.159 160.665 377.208 161.082 377.307C161.499 377.405 161.879 377.568 162.224 377.795C162.569 378.019 162.845 378.324 163.054 378.71C163.266 379.097 163.372 379.58 163.372 380.159V386H161.394V384.801H161.326C161.201 385.044 161.025 385.271 160.798 385.483C160.574 385.691 160.292 385.86 159.951 385.989C159.614 386.114 159.218 386.176 158.764 386.176ZM159.298 384.665C159.711 384.665 160.069 384.583 160.372 384.42C160.675 384.254 160.908 384.034 161.071 383.761C161.237 383.489 161.321 383.191 161.321 382.869V381.841C161.256 381.894 161.146 381.943 160.991 381.989C160.84 382.034 160.669 382.074 160.48 382.108C160.29 382.142 160.103 382.172 159.917 382.199C159.732 382.225 159.571 382.248 159.434 382.267C159.127 382.309 158.853 382.377 158.61 382.472C158.368 382.566 158.177 382.699 158.037 382.869C157.896 383.036 157.826 383.252 157.826 383.517C157.826 383.896 157.965 384.182 158.241 384.375C158.518 384.568 158.87 384.665 159.298 384.665ZM169.478 377.273V378.864H164.461V377.273H169.478ZM165.699 375.182H167.756V383.375C167.756 383.652 167.798 383.864 167.881 384.011C167.968 384.155 168.082 384.254 168.222 384.307C168.362 384.36 168.518 384.386 168.688 384.386C168.817 384.386 168.934 384.377 169.04 384.358C169.15 384.339 169.234 384.322 169.29 384.307L169.637 385.915C169.527 385.953 169.37 385.994 169.165 386.04C168.965 386.085 168.718 386.112 168.427 386.119C167.912 386.134 167.448 386.057 167.035 385.886C166.622 385.712 166.294 385.443 166.052 385.08C165.813 384.716 165.696 384.261 165.699 383.716V375.182ZM173.389 386.176C172.836 386.176 172.338 386.078 171.895 385.881C171.456 385.68 171.107 385.384 170.85 384.994C170.596 384.604 170.469 384.123 170.469 383.551C170.469 383.059 170.56 382.652 170.742 382.33C170.924 382.008 171.172 381.75 171.486 381.557C171.8 381.364 172.155 381.218 172.549 381.119C172.946 381.017 173.357 380.943 173.781 380.898C174.293 380.845 174.708 380.797 175.026 380.756C175.344 380.71 175.575 380.642 175.719 380.551C175.867 380.456 175.941 380.311 175.941 380.114V380.08C175.941 379.652 175.814 379.32 175.56 379.085C175.306 378.85 174.941 378.733 174.463 378.733C173.96 378.733 173.56 378.843 173.264 379.062C172.973 379.282 172.776 379.542 172.674 379.841L170.753 379.568C170.905 379.038 171.155 378.595 171.503 378.239C171.852 377.879 172.278 377.61 172.781 377.432C173.285 377.25 173.842 377.159 174.452 377.159C174.872 377.159 175.291 377.208 175.708 377.307C176.124 377.405 176.505 377.568 176.85 377.795C177.194 378.019 177.471 378.324 177.679 378.71C177.891 379.097 177.997 379.58 177.997 380.159V386H176.02V384.801H175.952C175.827 385.044 175.651 385.271 175.424 385.483C175.2 385.691 174.918 385.86 174.577 385.989C174.24 386.114 173.844 386.176 173.389 386.176ZM173.924 384.665C174.336 384.665 174.694 384.583 174.997 384.42C175.3 384.254 175.533 384.034 175.696 383.761C175.863 383.489 175.946 383.191 175.946 382.869V381.841C175.882 381.894 175.772 381.943 175.617 381.989C175.465 382.034 175.295 382.074 175.105 382.108C174.916 382.142 174.728 382.172 174.543 382.199C174.357 382.225 174.196 382.248 174.06 382.267C173.753 382.309 173.478 382.377 173.236 382.472C172.994 382.566 172.802 382.699 172.662 382.869C172.522 383.036 172.452 383.252 172.452 383.517C172.452 383.896 172.59 384.182 172.867 384.375C173.143 384.568 173.495 384.665 173.924 384.665ZM181.802 374.364V386H179.746V374.364H181.802Z" fill="#0D65A5"/>
</g>
<defs>
<clipPath id="clip0_1705_77692">
<rect width="328" height="424" rx="24" fill="white"/>
</clipPath>
</defs>
</svg>
