<svg width="20" height="20" viewBox="0 0 20 20" fill="none" xmlns="http://www.w3.org/2000/svg">
<path d="M18.5878 15.6328L11.0839 2.5141C10.9752 2.32079 10.8169 2.1599 10.6255 2.04793C10.434 1.93596 10.2162 1.87695 9.99444 1.87695C9.77265 1.87695 9.55485 1.93596 9.3634 2.04793C9.17194 2.1599 9.01373 2.32079 8.90499 2.5141L1.41358 15.6391C1.28937 15.8606 1.2356 16.1148 1.25942 16.3676C1.28324 16.6205 1.38353 16.8601 1.54692 17.0546C1.71032 17.249 1.92908 17.3891 2.17407 17.4561C2.41905 17.5231 2.67864 17.5139 2.91827 17.4297L10.0019 15.0352L17.0855 17.4282C17.2193 17.4753 17.36 17.4996 17.5019 17.5C17.7202 17.4993 17.9345 17.4414 18.1234 17.3321C18.3124 17.2228 18.4695 17.066 18.579 16.8771C18.6885 16.6883 18.7467 16.474 18.7477 16.2557C18.7487 16.0374 18.6925 15.8227 18.5847 15.6328H18.5878ZM17.4901 16.2453L10.6269 13.9266V9.37504C10.6269 9.20927 10.561 9.0503 10.4438 8.93309C10.3266 8.81588 10.1676 8.75004 10.0019 8.75004C9.8361 8.75004 9.67713 8.81588 9.55992 8.93309C9.44271 9.0503 9.37686 9.20927 9.37686 9.37504V13.9266L2.51436 16.2453L2.50186 16.25L9.99092 3.12504L17.5019 16.25L17.4901 16.2453Z" fill="white"/>
</svg>
