<svg width="60" height="60" viewBox="0 0 60 60" fill="none" xmlns="http://www.w3.org/2000/svg">
<mask id="mask0_7441_65397" style="mask-type:luminance" maskUnits="userSpaceOnUse" x="0" y="2" width="59" height="58">
<path d="M0.976562 2.36133H58.5766V59.9613H0.976562V2.36133Z" fill="white"/>
</mask>
<g mask="url(#mask0_7441_65397)">
<path d="M40.5777 58.7618H34.9545C32.0697 58.7618 29.3577 57.6386 27.3177 55.5986L10.2249 38.5058C8.82087 37.1018 8.82087 34.8194 10.2249 33.4154C12.4137 31.229 15.9321 30.9794 18.4065 32.8346L22.5777 35.9618V15.5617C22.5777 12.9145 24.7305 10.7617 27.3777 10.7617C30.0249 10.7617 32.1777 12.9145 32.1777 15.5617V23.4073C32.8833 22.9969 33.7041 22.7617 34.5777 22.7617C36.6681 22.7617 38.4513 24.1058 39.1089 25.973C39.8721 25.4618 40.7913 25.1618 41.7777 25.1618C43.8681 25.1618 45.6513 26.5058 46.3089 28.373C47.0721 27.8618 47.9913 27.5618 48.9777 27.5618C51.6249 27.5618 53.7777 29.7146 53.7777 32.3618V45.5618C53.7777 52.841 47.8569 58.7618 40.5777 58.7618ZM14.6577 33.989C13.6593 33.989 12.6681 34.3682 11.9241 35.1122C11.4561 35.5802 11.4561 36.341 11.9241 36.809L29.0169 53.9018C30.6033 55.4882 32.7129 56.3618 34.9569 56.3618H40.5777C46.5321 56.3618 51.3777 51.5162 51.3777 45.5618V32.3618C51.3777 31.0394 50.3001 29.9618 48.9777 29.9618C47.6553 29.9618 46.5777 31.0394 46.5777 32.3618V33.5618C46.5777 34.2242 46.0401 34.7618 45.3777 34.7618C44.7153 34.7618 44.1777 34.2242 44.1777 33.5618V29.9618C44.1777 28.6394 43.1001 27.5618 41.7777 27.5618C40.4553 27.5618 39.3777 28.6394 39.3777 29.9618V33.5618C39.3777 34.2242 38.8401 34.7618 38.1777 34.7618C37.5153 34.7618 36.9777 34.2242 36.9777 33.5618V27.5618C36.9777 26.2394 35.9001 25.1618 34.5777 25.1618C33.2553 25.1618 32.1777 26.2394 32.1777 27.5618V33.5618C32.1777 34.2242 31.6401 34.7618 30.9777 34.7618C30.3153 34.7618 29.7777 34.2242 29.7777 33.5618V15.5617C29.7777 14.2393 28.7001 13.1617 27.3777 13.1617C26.0553 13.1617 24.9777 14.2393 24.9777 15.5617V38.3618C24.9777 38.8154 24.7209 39.2306 24.3153 39.4346C23.9073 39.6386 23.4201 39.5954 23.0577 39.3218L16.9689 34.7546C16.2825 34.241 15.4689 33.989 14.6577 33.989Z" fill="white"/>
<path d="M20.0693 20.8217C19.6469 20.8217 19.2389 20.5985 19.0181 20.2049C18.1949 18.7241 17.7773 17.1617 17.7773 15.5609C17.7773 10.2665 22.0829 5.96094 27.3774 5.96094C32.6718 5.96094 36.9774 10.2665 36.9774 15.5609C36.9774 16.3505 36.8598 17.1497 36.6078 18.0761C36.4326 18.7169 35.763 19.0937 35.1342 18.9185C34.4934 18.7433 34.1166 18.0833 34.2918 17.4449C34.4862 16.7297 34.5774 16.1321 34.5774 15.5609C34.5774 11.5913 31.347 8.36094 27.3774 8.36094C23.4077 8.36094 20.1773 11.5913 20.1773 15.5609C20.1773 16.7489 20.4917 17.9201 21.1157 19.0385C21.4373 19.6169 21.2285 20.3489 20.6501 20.6705C20.4653 20.7737 20.2661 20.8217 20.0693 20.8217Z" fill="white"/>
<path d="M11.9973 4.023C12.6597 4.023 13.1973 4.5606 13.1973 5.22305L13.1973 24.423C13.1973 25.0854 12.6597 25.623 11.9973 25.623C11.3349 25.623 10.7973 25.0854 10.7973 24.423L10.7973 5.22305C10.7973 4.5606 11.3349 4.023 11.9973 4.023Z" fill="white"/>
<path d="M11.9994 4.02243C12.3066 4.02243 12.6138 4.14003 12.849 4.37283L17.649 9.17288C18.117 9.6409 18.117 10.4017 17.649 10.8697C17.181 11.3377 16.4202 11.3377 15.9522 10.8697L11.9994 6.91928L8.049 10.8697C7.581 11.3377 6.8202 11.3377 6.3522 10.8697C5.8842 10.4017 5.8842 9.6409 6.3522 9.17288L11.1522 4.37283C11.385 4.14003 11.6922 4.02243 11.9994 4.02243Z" fill="white"/>
</g>
</svg>
