<svg width="20" height="20" viewBox="0 0 20 20" fill="none" xmlns="http://www.w3.org/2000/svg">
<path d="M19.3712 7.50414L13.9025 2.03539C13.826 1.95886 13.7286 1.90672 13.6225 1.88557C13.5165 1.86441 13.4065 1.87518 13.3065 1.91652C13.2066 1.95786 13.1212 2.02792 13.061 2.11783C13.0009 2.20773 12.9687 2.31346 12.9687 2.42162V5.17992C11.1955 5.33168 9.23698 6.19984 7.62573 7.56635C5.6857 9.21244 4.47779 11.3336 4.22418 13.5389C4.20436 13.7104 4.23912 13.8837 4.32351 14.0342C4.40791 14.1848 4.53765 14.3049 4.69425 14.3774C4.85086 14.45 5.02635 14.4712 5.19576 14.4383C5.36518 14.4053 5.51988 14.3197 5.63785 14.1938C6.3898 13.3933 9.06536 10.8619 12.9687 10.6391V13.3591C12.9687 13.4673 13.0009 13.573 13.061 13.6629C13.1212 13.7528 13.2066 13.8229 13.3065 13.8642C13.4065 13.9056 13.5165 13.9163 13.6225 13.8952C13.7286 13.874 13.826 13.8219 13.9025 13.7454L19.3712 8.27662C19.4735 8.17406 19.531 8.03518 19.531 7.89037C19.531 7.74556 19.4735 7.60666 19.3712 7.50414ZM14.0625 12.0391V10.0779C14.0625 9.93281 14.0049 9.79375 13.9023 9.69119C13.7997 9.58862 13.6606 9.531 13.5156 9.531C11.596 9.531 9.72642 10.0321 7.95867 11.0212C7.0583 11.5272 6.21945 12.1356 5.45875 12.8341C5.85523 11.2044 6.85465 9.65475 8.33323 8.40031C9.92055 7.05434 11.8579 6.24974 13.5156 6.24974C13.6606 6.24974 13.7997 6.19213 13.9023 6.08957C14.0049 5.98701 14.0625 5.84791 14.0625 5.70287V3.74232L18.2112 7.89037L14.0625 12.0391Z" fill="#2A2A2A"/>
<mask id="mask0_703_14348" style="mask-type:alpha" maskUnits="userSpaceOnUse" x="0" y="2" width="17" height="17">
<path d="M7.625 3.23438V18.4844H1.125V3.23438H7.625Z" fill="#D9D9D9" stroke="#232426"/>
<path d="M16.375 14.4844V18.4844H8.625V14.4844H16.375Z" fill="#D9D9D9" stroke="#232426"/>
</mask>
<g mask="url(#mask0_703_14348)">
<path d="M13.75 3.98438H3.75C2.71447 3.98438 1.875 4.82384 1.875 5.85937V15.8594C1.875 16.8949 2.71447 17.7344 3.75 17.7344H13.75C14.7855 17.7344 15.625 16.8949 15.625 15.8594V5.85937C15.625 4.82384 14.7855 3.98438 13.75 3.98438Z" stroke="#2A2A2A" stroke-width="1.2"/>
</g>
</svg>
